<svg width="300" height="302" viewBox="0 0 300 302" fill="none" xmlns="http://www.w3.org/2000/svg">
<circle cx="150" cy="150" r="150" fill="#AC0000"/>
<path d="M180.84 85.68C180.094 85.8667 173.84 86.6133 162.08 87.92C156.294 87.7333 151.627 88.76 148.08 91C144.534 93.0533 142.294 96.04 141.36 99.96C140.614 103.693 141.174 108.36 143.04 113.96C143.414 114.893 144.16 115.827 145.28 116.76C146.4 117.507 147.52 117.973 148.64 118.16C149.76 118.347 152.654 117.973 157.32 117.04C179.907 112.933 198.014 120.4 211.64 139.44C226.014 159.6 227.974 180.32 217.52 201.6C198.48 240.987 164.414 257.32 115.32 250.6C107.854 249.667 101.88 246.867 97.4005 242.2C92.9205 237.533 90.4005 232.213 89.8405 226.24C89.4671 220.08 91.2405 214.667 95.1605 210C99.0805 205.147 104.867 201.6 112.52 199.36C119.054 197.493 129.6 195.533 144.16 193.48C156.107 191.613 165.44 184.987 172.16 173.6C173.094 171.92 173.654 170.053 173.84 168C174.027 165.76 173.747 163.893 173 162.4C172.627 161.467 171.32 160.813 169.08 160.44C167.027 160.067 165.067 160.067 163.2 160.44C160.4 161 156.294 162.027 150.88 163.52C145.467 165.013 141.64 165.947 139.4 166.32C128.574 168.747 119.427 167.627 111.96 162.96C104.68 158.293 100.294 150.64 98.8005 140C95.0671 116.667 97.5871 92.4933 106.36 67.48C108.6 61.1333 112.054 56.28 116.72 52.92C121.574 49.3733 127.267 47.88 133.8 48.44C145.374 49.3733 161.8 52.1733 183.08 56.84C184.76 57.2133 186.347 57.7733 187.84 58.52C189.52 59.2667 190.92 60.2933 192.04 61.6C193.347 62.72 194.28 64.2133 194.84 66.08C195.4 67.76 195.68 69.6267 195.68 71.68C195.307 79.1467 190.36 83.8133 180.84 85.68Z" fill="#F5F4F0"/>
</svg>
