<svg width="300" height="300" viewBox="0 0 300 300" fill="none" xmlns="http://www.w3.org/2000/svg">
<circle cx="150" cy="150" r="150" fill="#AC0000"/>
<path d="M138.042 112.165C196.941 114.424 223 146.329 223 178.518C223 210.141 198.012 241.765 154.819 245.435C150.178 245.718 145.538 246 141.611 246C96.6333 246 78.4279 224.824 78.4279 205.906C78.4279 192.071 88.423 179.365 104.844 177.388C106.628 177.106 108.056 177.106 109.841 177.106C130.188 177.106 126.976 194.047 140.54 194.047C141.968 194.047 143.396 193.765 145.181 193.482C150.535 192.353 163.619 185.576 163.619 178.518C163.619 166.376 143.396 151.976 108.056 151.976C105.2 151.976 102.345 151.976 99.489 152.259H97.7042C86.2812 152.259 79.4988 144.635 78.7848 133.624V125.435C78.7848 111.318 77 97.7647 77 86.4706C77 69.2471 81.2836 57.1059 103.416 55.4118V55.1294C103.773 55.1294 104.487 55.4118 104.844 55.4118C105.557 55.1294 106.271 55.1294 106.628 55.1294C109.127 55.1294 110.912 55.1294 113.054 55.4118C132.33 55.4118 148.751 54 161.958 54C182.663 54 194.8 57.3882 195.513 75.4588V77.1529C195.513 100.588 171.24 96.0706 136.971 97.2C136.971 103.129 137.328 105.388 138.042 112.165Z" fill="#F5F4F0"/>
</svg>
