<svg width="24" height="25" viewBox="0 0 24 25" fill="none" xmlns="http://www.w3.org/2000/svg">
<path d="M12 4.41762V21.2908M12 4.41762L13.1001 4.00478C15.6036 3.0653 18.3964 3.0653 20.8999 4.00478C21.5643 4.25412 22 4.85786 22 5.52924V19.3799C22 20.3018 21.0075 20.9322 20.0951 20.5898C18.1082 19.8442 15.8918 19.8442 13.9049 20.5898L12.0137 21.2995C12.0071 21.302 12 21.2974 12 21.2908M12 4.41762L10.8999 4.00478C8.39638 3.0653 5.60362 3.0653 3.10014 4.00478C2.43569 4.25412 2 4.85786 2 5.52924V19.3799C2 20.3018 2.99247 20.9322 3.90485 20.5898C5.89175 19.8442 8.10825 19.8442 10.0951 20.5898L11.9863 21.2995C11.9929 21.302 12 21.2974 12 21.2908" stroke="#AC0000" stroke-opacity="0.3" stroke-width="1.5"/>
</svg>
