<svg width="52" height="46" viewBox="0 0 52 46" fill="none" xmlns="http://www.w3.org/2000/svg">
<path d="M43.8053 1.65165C39.4221 -0.539902 35.3889 -0.311902 32.1086 0.952405C29.3471 2.01672 27.1308 3.80846 25.6598 5.47907C24.1888 3.80846 21.9725 2.01672 19.211 0.952405C15.9307 -0.311902 11.8974 -0.539902 7.51426 1.65165C1.82851 4.4945 -0.316217 9.51753 0.0371227 14.8175C0.386682 20.0612 3.16687 25.5792 7.28361 29.6958C11.1358 33.548 18.5534 40.5216 23.1904 44.2645C24.6348 45.4304 26.6729 45.4875 28.165 44.353C33.2328 40.4991 40.1251 33.6068 44.0112 29.7205L44.0358 29.6958C48.1526 25.5792 50.9328 20.0612 51.2824 14.8175C51.6358 9.51753 49.4911 4.4945 43.8053 1.65165Z" fill="#C82525"/>
<path d="M26.3701 7.41512C27.6189 5.74994 29.8584 3.72196 32.7472 2.60862C35.6058 1.50687 39.1156 1.29116 43.0118 3.23925C47.9754 5.72095 49.8241 10.016 49.5119 14.6995C49.1958 19.4396 46.6513 24.5708 42.7812 28.4409C38.8685 32.3537 32.0524 39.1673 27.0909 42.9403C26.2635 43.5696 25.1286 43.5478 24.3054 42.8835C19.7391 39.1976 12.3721 32.2741 8.53896 28.4409C4.6688 24.5708 2.12439 19.4396 1.80839 14.6995C1.49614 10.016 3.34487 5.72095 8.30832 3.23925C12.2045 1.29116 15.7144 1.50687 18.573 2.60862C21.4617 3.72196 23.7013 5.74994 24.9502 7.41512L25.6602 8.36172L26.3701 7.41512Z" fill="#D93030"/>
<path d="M34.688 21.4975C37.0952 22.8872 40.9462 20.7235 43.2895 16.6647C45.6329 12.6059 45.5812 8.18893 43.1741 6.79919C40.767 5.40945 36.916 7.57317 34.5726 11.632C32.2293 15.6908 32.2809 20.1078 34.688 21.4975Z" fill="#EE5C5C"/>
</svg>

