<svg width="24" height="25" viewBox="0 0 24 25" fill="none" xmlns="http://www.w3.org/2000/svg">
<path d="M21.75 17.3V12.05C21.75 10.555 21.0461 9.14711 19.85 8.25005L14.85 4.50005C13.1611 3.23338 10.8389 3.23338 9.15 4.50005L4.15 8.25005C2.95392 9.14711 2.25 10.555 2.25 12.05V17.3C2.25 19.9234 4.37665 22.05 7 22.05H8.15789C9.12439 22.05 9.9079 21.2665 9.9079 20.3V17.9C9.9079 17.2097 10.4675 16.65 11.1579 16.65H12.8421C13.5325 16.65 14.0921 17.2097 14.0921 17.9001V20.3C14.0921 21.2665 14.8756 22.05 15.8421 22.05H17C19.6234 22.05 21.75 19.9234 21.75 17.3Z" stroke="#AC0000" stroke-opacity="0.3" stroke-width="1.5"/>
</svg>
