<svg xmlns="http://www.w3.org/2000/svg" id="Layer_1" viewBox="0 0 478.06 346.14">
  <defs>
    <style>
      .cls-1 {
        fill: #aa1e23;
      }
    </style>
  </defs>
  <path class="cls-1" d="M271.43,168.28c40.36,0,66.12-60.16,66.12-101.57,0-27.04-10.69-43.87-28.6-45.03h-2.68c-30.95-.01-32.04,37.94-32.52,62.58-.14,7.1.14,19.66-2.24,19.66s-2.56-12.79-2.97-19.02c-.83-12.8-1.76-27.31-5.76-39.06-6.58-19.35-18.35-24.36-27.87-24.36-1.2,0-2.69,0-4.31.26-17.32,1.97-27.25,18.14-27.25,44.39,0,41.65,26.52,102.16,68.08,102.16Z"/>
  <g>
    <path class="cls-1" d="M181.93,70.57c-5.66-5.04-12.59-7.35-20.57-6.87h0s-.94.07-.94.07c-.02,0-.05,0-.07,0v.03c-18.48,2.31-26.95,13.64-25.17,33.67.5,5.58,1.28,15.93,2.04,25.93.75,9.84,1.52,20.02,2.01,25.43,1.05,11.79,7.09,18.12,11.97,21.36,4.91,3.25,11.08,4.98,17.67,4.98,1.12,0,2.26-.05,3.4-.15,7.61-.68,14.93-5.02,20.08-11.91,5.22-6.99,7.66-15.73,6.87-24.63-.11-1.29-.18-3.55-.25-6.18-.44-16.67-1.27-47.69-17.04-61.74Z"/>
    <path class="cls-1" d="M139.62,50.36c6.03,5.68,14.62,8.95,23.87,8.27h0c16.77-1.22,29.49-14.9,28.36-30.49-1.13-15.59-15.7-27.28-32.47-26.06-16.77,1.22-29.49,14.9-28.36,30.49.51,6.98,3.71,13.18,8.59,17.79Z"/>
  </g>
  <g>
    <path class="cls-1" d="M261.39,180.71c-1.34-.04-2.99-.09-4.56.14-8.82,1.01-19.39,5.89-19.91,23.41-.21,7.09,10.04,38.41,3.55,38.21-6.49-.19-5.42-12.1-6.93-20.05-3.34-17.69-7.92-41.92-29.7-42.56-1.54-.05-3,.09-4.54.23l-.95.09c-12.93,1.78-24.12,11.87-32.36,29.19-6.99,14.69-11.32,33.97-11.88,52.9-1.23,41.35,14.57,68.57,40.23,69.33,1.75.05,3.69-.13,5.64-.3,17-1.83,20.85-11.76,21.08-19.77.28-9.5-8.01-19.5-12.07-29.3-2.61-6.28-7.48-15.3-1.52-16.87,5.96-1.57,8.81,12.79,11.33,21.83,5.53,19.81,10.57,44.16,33.19,45.7l1.35.04c26.19.78,41.41-25.77,42.86-74.74,1.44-48.53-11.26-76.77-34.83-77.47Z"/>
    <path class="cls-1" d="M393.41,196.27c-45.15-11.98-79.43,19.01-88.78,54.23-8.87,33.46,3.5,72.88,51.14,85.52l1.69.45c9.94,2.43,19.29,3.21,27.82,2.38,8.05-.79,15.37-3.03,21.72-6.7,11.22-6.47,19.33-17.33,22.84-30.57,1.88-7.08,2.34-14.36,1.37-21.63-1.65-12.57-14.59-15.96-28.29-19.54l-2.77-.73c-1.91-.51-3.83-.96-5.76-1.42-1.85-.44-3.69-.88-5.61-1.38-4.85-1.19-19.62-4.82-22.6,6.43-1.04,3.95-.19,8.27,1.09,10.71,2.46,4.42,11.76,4.98,12.56,9.95s-2.03,6.22-4.73,6.02c-.67-.05-1.15-.18-2.16-.44-9.56-2.54-13.96-18.02-10.3-31.82,2.26-8.53,6.12-18.62,11.74-20.95,5.61-2.33,7.65,1.69,9.19,5.16,1.94,4.37,4.59,10.34,14.54,14.08,2.51,1.11,4.75,1.92,6.84,2.47,11.33,3,25.26-.35,29.09-14.79,2.27-8.57-.1-18.32-6.51-26.74-5.05-6.64-15.07-15.62-34.13-20.67Z"/>
    <g>
      <path class="cls-1" d="M146.31,294.19c-1.75-8.43-3.57-17.15-4.48-21.86-3.33-17.2-13.96-25.05-31.61-23.32v-.02s-.96.13-.96.13h0c-8.14,1.29-14.34,5.04-18.45,11.18-10.32,15.41-3.61,40.68,0,54.25.57,2.15,1.06,4,1.27,5.04,2.81,14.54,16.31,25.55,30.46,25.55,1.16,0,2.33-.07,3.5-.23,9.21-1.21,16.68-5.2,21.05-11.25,3.67-5.09,4.91-11.38,3.59-18.21-.88-4.54-2.57-12.66-4.36-21.26Z"/>
      <path class="cls-1" d="M97.46,246.89c6.92,0,13.74-2.37,19.44-6.79,13.28-10.31,16.29-28.75,6.7-41.09-9.59-12.35-28.19-14.01-41.47-3.7-13.28,10.31-16.29,28.75-6.7,41.09,4.69,6.04,11.63,9.73,19.55,10.38.83.07,1.66.1,2.49.1Z"/>
    </g>
  </g>
  <path class="cls-1" d="M455.15,41.76c-19.11-16.17-50.48-19.36-67.99-14.81s-29.6,15.22-33.99,32.65,7.47,31.15,10.58,35.29c-2.13.57-6.72,2.45-14.23,8.68-15.59,12.93-21.06,32.03-14.26,49.85,7.82,20.49,29.27,33.13,54.65,32.2,3.95-.14,7.78-.32,11.51-.63,10.71-.9,20.57-2.9,29.67-8.37,14.13-8.51,21.98-20.82,23.32-36.58h0c.35-4.88-.66-9.76-3.09-14.45-8-15.39-29.11-15.77-37.32-6.19-5.88,6.86-30.23,16.84-31.21,10.18-.98-6.66,6.19-6.56,12.31-8.24s13.6-3.16,19.87-10.49c2.63-3.43,3.75-6.93,3.33-10.39-.43-3.45-2.06-6.47-4.92-9.03-.64-.46-3.12-2.27-7.44-5.43-.07-.09-.16-.18-.28-.27l.03-.08-2.93-1.98c-.82-.56-6.55-5.31-6.52-8.68,0-.88.43-1.59,1.31-2.17,1.09-.73,2.22-.96,3.44-.71,2.55.52,5.33,3.06,8.3,7.59,14.2,18.96,31.1,26.08,46.36,19.5,8.03-3.46,14.06-13.7,14.99-25.48,1.06-13.39-5.63-23.6-15.49-31.94Z"/>
  <path class="cls-1" d="M89.53,179.74c7.18-2.14,13.4-6.34,18.69-12.57,6.42-7.45,9.02-15.75,7.81-24.91-.88-5.53-4.39-11.68-10.53-18.46-1.55-1.65-4.37-4.73-8.46-9.25,3.28-1.49,18.84-6.18,19.41-18.91.18-4.03-.59-7.7-3.03-10.99-2.44-3.29-5.95-5.08-10.53-5.38-5.71-.27-11.72,1.46-18.04,5.19-1.26.69-3.1,1.9-5.5,3.65-2.4,1.75-4.24,2.97-5.5,3.65-1.83,1.14-3.52,1.51-5.05,1.09-1.53-.41-2.76-1.47-3.68-3.17-1.36-2.19-1.65-4.3-.87-6.34.78-2.03,2.14-3.5,4.1-4.42,1.96-.92,3.91-1.54,5.86-1.87,11.42-3.82,36.94-.35,45.49-24.74,11.41-32.55-25.87-45.96-53.54-37.91-15.82,4.6-44.92,14.44-58.32,52.03-18.68,52.39,51.38,129.99,81.7,113.31Z"/>
</svg>