<svg width="308" height="399" viewBox="0 0 308 399" fill="none" xmlns="http://www.w3.org/2000/svg">
<path fill-rule="evenodd" clip-rule="evenodd" d="M82.8911 273.428L83.4982 280.082L95.0349 282.477L103.839 285.936L110.822 291.259L114.161 288.864L118.412 280.614L123.269 279.816L140.878 281.412L146.95 283.009L144.825 292.058L142.7 298.711L177.917 296.848L176.702 281.412L169.416 267.308L140.574 255.066L119.019 257.461L103.839 272.098L97.16 275.291L85.32 274.759" fill="#FF5678"/>
<path fill-rule="evenodd" clip-rule="evenodd" d="M66.092 286.68C66.092 287.766 66.8613 287.697 67.7929 287.613C68.1105 287.585 68.4472 287.555 68.7787 287.568C68.9809 287.577 69.3219 287.629 69.7264 287.691L69.7267 287.691C70.9104 287.872 72.6383 288.137 73.0228 287.625C73.3906 287.135 72.8781 287.069 72.3553 287.001C72.0029 286.955 71.646 286.908 71.5514 286.731C71.3003 286.26 71.7928 285.933 72.2717 285.615C72.6964 285.333 73.1106 285.057 72.9856 284.695C72.8597 284.33 72.2972 284.537 71.6899 284.761C71.0159 285.01 70.2866 285.279 70.0375 284.808C69.8001 284.359 70.3463 283.943 70.8421 283.565C71.2615 283.246 71.6451 282.954 71.4882 282.692C71.1976 282.209 68.2516 283.433 67.8754 283.644C66.8111 284.239 66.0437 285.577 66.092 286.68ZM197.66 260.875C198.111 261.301 198.456 261.803 198.797 262.301C199.139 262.799 199.479 263.294 199.92 263.704C200.301 264.057 200.737 264.194 201.189 264.336V264.337C201.394 264.401 201.602 264.466 201.81 264.553C202.21 264.721 202.625 264.903 203.05 265.089C204.688 265.807 206.48 266.593 208.182 266.902C206.926 265.618 206.129 264.456 205.383 262.896C205.307 262.737 205.226 262.575 205.143 262.411C204.937 262.002 204.725 261.582 204.583 261.168C204.432 260.732 204.403 260.283 204.375 259.836C204.349 259.432 204.323 259.03 204.208 258.641C204.143 258.422 204.116 258.253 204.097 258.127L204.096 258.127V258.126C204.073 257.978 204.06 257.891 204.004 257.856C203.925 257.806 203.761 257.858 203.367 257.984L203.336 257.994L203.288 258.009L203.236 258.025C202.895 258.134 202.578 258.365 202.269 258.59C202.076 258.731 201.885 258.869 201.694 258.974C201.102 259.298 200.486 259.554 199.872 259.809C199.114 260.124 198.359 260.437 197.66 260.875ZM255.153 237.823C255.196 238.226 261.413 236.288 262.027 235.932C263.174 235.267 264.519 232.205 263.298 231.298C262.199 230.481 259.783 231.476 258.035 232.197C257.439 232.442 256.921 232.656 256.559 232.755C254.158 233.41 251.393 233.779 248.891 233.556C247.757 233.455 246.64 233.37 245.494 233.309C245.302 233.298 245.079 233.272 244.841 233.243C244.022 233.146 243.022 233.027 242.45 233.474C241.752 234.02 241.836 235.106 242.192 235.785C242.314 236.019 242.462 236.148 242.605 236.273C242.73 236.382 242.851 236.488 242.948 236.657C242.974 236.702 242.96 236.761 242.944 236.831C242.917 236.942 242.883 237.083 242.989 237.251C243.464 238.009 245.078 239.274 245.948 239.659C246.781 240.029 247.085 239.801 247.548 239.455C247.705 239.337 247.88 239.206 248.1 239.08C249.613 238.213 251.978 238.049 253.964 237.912C254.381 237.883 254.781 237.856 255.153 237.823ZM240.759 238.058C238.959 239.977 236.842 241.312 234.623 242.712L234.622 242.712C234.184 242.989 233.741 243.268 233.296 243.554C232.694 243.942 232.099 244.338 231.505 244.733L231.505 244.733L231.505 244.733L231.504 244.733L231.504 244.734V244.734C229.74 245.907 227.979 247.078 226.045 248.034C225.836 248.137 225.591 248.229 225.342 248.321C224.685 248.566 224.003 248.819 223.904 249.325C223.817 249.765 224.415 250.702 224.915 251.486C225.161 251.87 225.383 252.218 225.489 252.452C226.442 254.556 227.177 256.707 227.916 258.874C228.019 259.177 228.123 259.479 228.227 259.782L228.406 259.537C230.879 256.169 233.385 252.755 236.415 249.712C239.153 246.961 241.963 244.082 244.357 241.117C242.908 240.346 241.707 239.282 240.759 238.058ZM219.762 212.823C217.226 212.735 216.452 214.544 215.712 216.276C215.421 216.957 215.135 217.625 214.75 218.162C213.994 219.215 212.989 220.344 211.873 221.132C211.027 221.728 210.012 222.079 209.001 222.43C208.505 222.602 208.009 222.774 207.535 222.974C206.229 223.525 205.069 224.077 204.254 225.139C204.177 225.24 204.09 225.347 204 225.459C203.434 226.157 202.722 227.036 203.128 227.853C203.41 228.42 204.177 228.889 204.931 229.348C205.464 229.674 205.991 229.995 206.333 230.344C207.31 231.342 207.448 231.313 208.55 231.082C208.729 231.044 208.934 231.001 209.172 230.956C210.021 230.796 210.829 230.746 211.697 230.773C211.803 230.776 211.983 230.805 212.193 230.839C212.682 230.918 213.328 231.023 213.546 230.882C213.809 230.711 213.727 230.184 213.656 229.725C213.62 229.49 213.586 229.273 213.603 229.132C213.68 228.496 213.938 227.84 214.184 227.241C215.013 225.209 216.483 223.768 218.013 222.267L218.014 222.265L218.015 222.264L218.017 222.262L218.019 222.261C218.278 222.006 218.54 221.75 218.8 221.489C219.751 220.533 220.876 219.719 221.999 218.905C223.153 218.069 224.306 217.235 225.268 216.25C226.316 215.176 225.839 214.417 224.4 213.914C223.994 213.773 223.549 213.71 223.105 213.647C222.75 213.597 222.395 213.547 222.061 213.456C221.798 213.385 221.544 213.29 221.291 213.196C220.8 213.011 220.312 212.829 219.762 212.823ZM82.3764 288.631C82.8711 288.631 83.3625 288.454 83.8478 288.28C84.3717 288.091 84.8887 287.906 85.3959 287.947C85.6408 287.967 85.9161 288.169 86.1765 288.361C86.3443 288.485 86.506 288.604 86.6493 288.667C87.1693 288.894 87.7306 289.007 88.3038 289.069C88.682 289.11 89.0148 289.111 89.3228 289.111C90.0319 289.111 90.609 289.112 91.303 289.607C92.0295 290.126 92.7795 290.779 93.477 291.387C93.6373 291.527 93.7951 291.664 93.9489 291.797C95.2246 292.897 96.3364 294.213 97.4267 295.503C97.8382 295.99 98.2466 296.473 98.6595 296.94C100.52 299.042 102.453 300.712 104.928 302.287C106.884 303.531 108.866 304.349 111.068 305.259L111.269 305.342C113.509 306.268 116.326 307.342 118.867 307.393C120.894 307.434 123.427 306.865 125.272 306.109C126.157 305.747 126.577 305.684 127.299 305.575C127.453 305.552 127.62 305.527 127.808 305.496C129.416 305.236 131.268 304.499 132.782 303.897L132.946 303.832C137.789 301.906 140.859 297.71 143.043 293.602C144.286 291.264 145.062 288.98 145.58 286.45C145.607 286.319 145.634 286.197 145.659 286.083C145.893 285.008 145.962 284.695 144.572 284.179C143.343 283.723 142.036 283.405 140.743 283.091C140.403 283.008 140.064 282.926 139.728 282.841C134.99 281.649 129.59 281.386 124.698 281.569C124.406 281.579 124.114 281.597 123.821 281.615H123.821H123.82H123.82H123.819C123.34 281.644 122.861 281.672 122.383 281.672C122.226 281.672 122 281.647 121.753 281.62C121.26 281.566 120.683 281.502 120.401 281.606C119.735 281.853 119.169 282.969 118.765 283.764L118.765 283.764L118.765 283.765L118.765 283.765C118.657 283.977 118.562 284.165 118.479 284.309C117.803 285.478 117.202 286.677 116.603 287.875V287.875C116.068 288.943 115.534 290.01 114.946 291.056C114.297 292.21 113.329 292.969 111.797 292.988C110.279 293.006 109.472 292.256 108.552 291.4C108.433 291.289 108.311 291.176 108.186 291.063C106.015 289.097 103.094 287.408 100.399 286.04C97.4885 284.564 94.0181 283.133 90.7045 282.612C90.3616 282.558 89.9499 282.477 89.4941 282.386C87.0162 281.895 83.2333 281.144 82.0995 283.187C82.1225 283.184 82.1481 283.181 82.1755 283.177L82.1813 283.177C82.9719 283.083 85.4082 282.793 85.5153 283.77C85.5539 284.122 84.8854 284.339 84.1164 284.589C83.2226 284.879 82.1931 285.213 81.9794 285.854C82.1455 285.843 82.3925 285.806 82.6829 285.763C83.8643 285.587 85.7695 285.304 85.9335 286.182C86.0206 286.647 85.2593 286.928 84.7328 287.122C84.6018 287.17 84.4851 287.213 84.3999 287.252C83.553 287.641 83.043 288.046 82.3764 288.631ZM174.36 253.884C173.701 253.478 172.523 253.42 171.514 253.37C171.141 253.351 170.791 253.334 170.499 253.3L170.491 253.3L170.491 253.299C169.111 253.142 167.769 252.988 166.375 253.055C165.871 253.079 165.358 253.093 164.843 253.108C163.361 253.15 161.851 253.193 160.43 253.466C158.029 253.927 155.756 254.635 153.586 255.629C153.544 255.648 153.501 255.667 153.457 255.687L153.455 255.688C152.745 256.01 151.843 256.418 151.85 257.288C151.855 257.993 152.117 258.032 152.732 258.125C152.875 258.146 153.038 258.17 153.22 258.207C155.249 258.61 157.16 259.614 159.002 260.581C159.528 260.857 160.049 261.131 160.564 261.386C163.035 262.609 165.495 263.983 167.787 265.449C172.182 268.259 174.69 272.301 176.642 276.695C177.651 278.968 178.383 281.622 178.687 284.044C178.87 285.506 178.871 286.971 178.872 288.436V288.437C178.873 289.674 178.874 290.909 178.984 292.142C178.992 292.226 179 292.344 179.01 292.487C179.075 293.415 179.211 295.369 179.688 295.712C179.979 295.921 181.074 295.723 181.907 295.573C182.268 295.508 182.58 295.451 182.756 295.441C184.077 295.361 185.403 295.329 186.721 295.297H186.721C187.834 295.27 188.942 295.243 190.036 295.188C192.547 295.062 195.088 295.086 197.636 295.11C200.216 295.134 202.803 295.159 205.369 295.027C207.934 294.895 210.418 294.58 212.933 294.127C213.64 294 214.4 293.907 215.174 293.812C216.962 293.593 218.83 293.363 220.317 292.686C224.423 290.817 226.926 286.311 227.106 282.496C227.301 278.36 226.978 273.859 225.984 269.739C225.86 269.225 225.74 268.718 225.621 268.213C225.239 266.597 224.865 265.015 224.398 263.388C223.789 261.268 223.114 259.156 222.443 257.059L222.438 257.041C222.354 256.78 222.27 256.518 222.187 256.257C221.656 254.596 221.005 252.981 220.354 251.368V251.368V251.368L220.354 251.367C219.413 249.035 218.473 246.705 217.902 244.244C217.37 241.953 216.616 239.557 215.829 237.321C215.539 236.497 214.967 234.932 214.292 234.306C213.756 233.808 213.284 233.903 212.629 234.035C212.419 234.077 212.189 234.123 211.932 234.155C211.489 234.209 210.949 234.203 210.388 234.196C208.715 234.175 206.862 234.152 206.863 235.747C206.864 236.43 207.015 237.132 207.167 237.831V237.832V237.832L207.167 237.832V237.832V237.833V237.833V237.833C207.274 238.329 207.381 238.823 207.433 239.308C207.496 239.89 207.514 240.474 207.532 241.057V241.057V241.058V241.058V241.058V241.058V241.059V241.059C207.556 241.857 207.58 242.654 207.719 243.447C207.801 243.914 207.891 244.374 207.98 244.829L207.98 244.831C208.315 246.544 208.639 248.204 208.488 250.008C208.41 250.936 208.279 251.85 208.147 252.763C207.927 254.293 207.708 255.818 207.743 257.395C207.749 257.684 207.753 257.971 207.756 258.258C207.78 260.347 207.804 262.368 208.951 264.302C209.174 264.68 209.381 265.085 209.588 265.49V265.49C209.89 266.082 210.193 266.675 210.552 267.191C211.261 268.209 211.876 268.507 213.143 268.917C213.328 268.977 213.577 269.042 213.856 269.114C214.771 269.35 216.012 269.67 216.406 270.201C217.148 271.2 216.157 271.604 215.18 271.57C212.711 271.484 210.188 270.68 207.802 269.92L207.801 269.92L207.8 269.92L207.8 269.92L207.798 269.919L207.794 269.918C207.269 269.751 206.75 269.585 206.241 269.431C205.426 269.183 204.629 268.896 203.834 268.609L203.834 268.609C203.331 268.428 202.829 268.247 202.323 268.076C202.031 267.978 201.754 267.897 201.486 267.819C200.794 267.618 200.161 267.434 199.476 267C198.28 266.243 197.224 265.336 196.169 264.429C195.181 263.581 194.194 262.732 193.09 262.005C188.77 259.161 183.592 257.463 178.166 256.959C176.77 256.829 175.689 256.887 174.291 256.991C174.085 257.006 173.879 257.019 173.673 257.031C173.109 257.066 172.547 257.1 171.986 257.191C171.831 257.216 171.527 257.317 171.182 257.431C170.541 257.644 169.759 257.903 169.535 257.809C167.29 256.877 173.646 254.039 174.36 253.884ZM82.885 273.569C82.8857 273.559 82.8864 273.55 82.8873 273.54C82.8915 273.553 82.8957 273.566 82.8997 273.579L82.885 273.569ZM82.9754 273.801C82.9496 273.729 82.9245 273.655 82.8997 273.579C83.3574 273.897 83.7719 274.244 84.1847 274.59H84.1849L84.1852 274.591C84.7381 275.054 85.2883 275.516 85.9361 275.9C87.2834 276.7 88.8856 277.123 90.4822 277.422C93.4189 277.973 97.4328 277.835 100.233 276.753C102.822 275.753 104.458 273.948 105.898 271.852C106.113 271.539 106.239 271.199 106.361 270.87C106.623 270.163 106.864 269.512 107.925 269.315C108.646 269.181 109.509 269.43 110.385 269.683C111.096 269.887 111.815 270.095 112.473 270.102C113.898 270.116 115.746 269.548 116.91 268.782C117.302 268.523 117.581 268.017 117.847 267.535V267.535C118.12 267.039 118.378 266.569 118.732 266.422C119.01 266.306 119.468 266.477 119.864 266.626C120.05 266.696 120.224 266.761 120.358 266.788C121.091 266.936 121.821 266.983 122.556 266.814C123.509 266.595 125.058 265.994 125.801 265.426C126.2 265.121 126.434 264.508 126.66 263.917C126.892 263.313 127.114 262.732 127.494 262.533C127.812 262.366 128.359 262.494 128.916 262.624C129.341 262.723 129.772 262.824 130.111 262.796C132.629 262.585 134.346 261.326 135.314 259.307C135.387 259.156 135.464 258.828 135.552 258.451C135.729 257.702 135.95 256.761 136.271 256.634C136.461 256.559 137.468 256.879 138.198 257.111C138.522 257.214 138.791 257.3 138.911 257.326C141.361 257.863 144.434 259.007 146.558 260.166C148.186 261.055 150.048 261.643 151.898 262.226L151.898 262.226L151.899 262.227C152.949 262.558 153.995 262.888 154.992 263.271C157.287 264.153 159.526 265.212 161.644 266.339C164.136 267.665 166.396 269.008 168.427 270.858L168.512 270.935L168.624 271.037C170.557 272.795 172.813 274.847 173.651 277.199C173.965 278.08 174.072 279.027 174.178 279.967V279.967V279.967C174.237 280.49 174.295 281.01 174.389 281.515C174.557 282.424 174.821 283.304 175.084 284.186C175.231 284.678 175.379 285.171 175.51 285.67C176.204 288.31 176.481 291.435 176.46 294.151C176.458 294.378 176.472 294.59 176.485 294.785C176.535 295.553 176.569 296.064 175.561 296.264C174.748 296.426 173.638 296.225 172.61 296.039C172.076 295.942 171.565 295.85 171.128 295.814C170.026 295.722 168.953 295.749 167.874 295.775H167.873H167.873H167.872H167.872C167.302 295.789 166.731 295.803 166.153 295.8C165.671 295.797 165.18 295.771 164.685 295.746C163.622 295.691 162.542 295.635 161.505 295.802C159.657 296.099 157.739 296.166 155.809 296.233C155.079 296.258 154.348 296.283 153.619 296.321C152.808 296.363 151.997 296.368 151.186 296.372C150.196 296.377 149.207 296.382 148.219 296.456C148.096 296.465 147.809 296.51 147.442 296.568C146.298 296.749 144.378 297.052 144.215 296.77C144.029 296.448 144.893 295.091 145.554 294.051C145.85 293.585 146.106 293.183 146.208 292.967C146.834 291.644 147.391 290.29 147.695 288.879C148.209 286.492 148.392 284.183 148.414 281.781C148.44 279.004 147.888 276.387 147.03 273.731C147.009 273.666 146.983 273.565 146.949 273.439C146.714 272.549 146.149 270.412 144.998 271.057C144.303 271.446 144.702 273.145 144.926 274.097C144.979 274.323 145.022 274.507 145.038 274.621C145.117 275.168 145.223 275.71 145.33 276.252C145.495 277.088 145.659 277.923 145.718 278.771C145.73 278.929 145.753 279.116 145.778 279.317C145.851 279.901 145.938 280.6 145.778 281.039C145.722 281.192 145.697 281.302 145.679 281.381C145.659 281.468 145.648 281.516 145.615 281.54C145.573 281.57 145.495 281.562 145.322 281.545C145.237 281.537 145.129 281.526 144.991 281.516C144.281 281.466 143.465 281.048 142.686 280.65C142.176 280.389 141.683 280.137 141.246 280.002C139.843 279.567 138.456 279.306 137 279.075C133.857 278.577 130.706 278.395 127.508 278.403C126.738 278.406 125.931 278.525 125.126 278.644H125.126C124.187 278.782 123.252 278.92 122.381 278.872C122.317 278.869 122.255 278.865 122.194 278.862C121.105 278.801 120.297 278.756 119.05 278.959C119.251 278.003 119.738 277.09 120.225 276.177C120.779 275.139 121.334 274.1 121.468 272.994C121.811 270.178 119.13 272.083 118.234 273.202C116.943 274.814 115.913 276.513 115.587 278.506C115.526 278.883 115.58 279.263 115.634 279.636C115.692 280.046 115.75 280.448 115.653 280.832C115.534 281.306 115.142 281.83 114.768 282.331C114.538 282.639 114.314 282.938 114.163 283.213C113.238 284.896 112.594 286.659 111.987 288.444C111.94 288.585 111.902 288.716 111.868 288.835V288.835C111.689 289.457 111.602 289.763 110.663 289.389C110.229 289.217 109.889 288.881 109.554 288.55C109.359 288.358 109.167 288.169 108.959 288.013C106.203 285.95 103.295 284.036 100.111 282.454C96.7848 280.801 93.5421 280.03 89.7715 279.682C89.5621 279.663 89.3193 279.646 89.0547 279.626H89.0542C87.5403 279.517 85.3162 279.356 84.5999 278.536C83.9682 277.814 83.6659 276.521 83.3922 275.351C83.2582 274.778 83.1311 274.234 82.9754 273.801ZM85.1196 273.004C84.1322 272.588 83.0089 272.116 82.8873 273.54C82.7558 273.131 82.6364 272.665 82.5114 272.178C82.1659 270.831 81.7805 269.328 80.9943 268.441C80.774 268.193 80.5038 268.117 80.254 268.047C80.0575 267.992 79.8735 267.94 79.7364 267.81C79.4114 267.503 79.3702 266.847 79.3375 266.327V266.327V266.326C79.3259 266.14 79.3152 265.971 79.2929 265.841C79.2399 265.533 79.1844 265.229 79.1293 264.929L79.1291 264.928V264.928V264.928C78.8559 263.437 78.5966 262.024 78.7464 260.459C78.7511 260.41 78.7546 260.326 78.7592 260.219C78.781 259.719 78.8243 258.726 79.0903 258.586C79.3484 258.45 80.0789 258.63 80.6825 258.779V258.779C80.9917 258.855 81.2677 258.923 81.4299 258.937C82.3955 259.015 83.3678 259.124 84.3422 259.232C87.1031 259.54 89.8816 259.85 92.5739 259.489C95.8433 259.05 98.9794 258.123 101.994 256.937C102.059 257.25 102.227 257.501 102.499 257.691C102.594 257.569 102.678 257.453 102.756 257.345C103.17 256.775 103.442 256.399 104.514 256.252C105.328 256.14 106.453 256.361 107.127 256.805C109.738 258.521 106.761 260.213 105.045 260.983C107.166 263.021 107.835 267.338 105.393 269.421C105.045 269.718 104.695 269.99 104.349 270.26L104.348 270.26C103.731 270.742 103.123 271.215 102.548 271.809C101.608 272.779 100.856 273.533 99.4936 273.881C99.3321 273.922 99.1658 273.965 98.9957 274.009C97.6519 274.358 96.0731 274.767 94.7621 274.827C93.7986 274.87 92.7649 274.696 91.7686 274.528C91.3112 274.45 90.8614 274.374 90.4299 274.321C88.7253 274.113 87.0738 273.781 85.4981 273.16C85.3759 273.112 85.249 273.059 85.1196 273.004ZM81.0373 290.563C81.1362 290.669 81.323 290.849 81.5635 291.081C83.0028 292.466 86.3752 295.713 84.5318 296.185C83.7426 296.387 82.4917 295.255 81.6086 294.456C81.3293 294.203 81.0867 293.983 80.9069 293.85C79.748 292.989 78.5341 292.423 77.1208 291.947C73.6715 290.788 70.5508 289.746 66.7946 290.227C66.2563 290.296 65.6791 290.412 65.0892 290.53C63.9141 290.765 62.6871 291.011 61.6102 290.919C59.9823 290.781 60.4039 289.513 61.422 288.804C61.7671 288.564 62.1637 288.441 62.5447 288.322C63.1685 288.128 63.7507 287.947 63.9989 287.288C64.175 286.819 64.1915 286.297 64.2082 285.767C64.2298 285.085 64.2519 284.391 64.616 283.786C65.1685 282.868 66.4707 281.916 67.476 281.384C67.6219 281.307 67.8027 281.237 67.9874 281.167C68.357 281.025 68.742 280.877 68.8947 280.649C69.0362 280.438 68.6317 279.474 68.3777 278.869V278.869C68.2945 278.671 68.2276 278.512 68.2011 278.43C68.0645 278.004 67.9244 277.578 67.7846 277.152C67.3863 275.941 66.9874 274.727 66.6582 273.504C66.2456 271.972 66.1382 271.178 67.9853 270.622C69.5032 270.165 71.0607 269.839 72.6153 269.513C73.9477 269.234 75.2781 268.956 76.5797 268.595C76.2428 267.829 75.4231 268.013 74.5811 268.203C74.1736 268.295 73.761 268.388 73.395 268.375C72.0203 268.327 70.4295 267.932 69.1203 267.563C66.1482 266.725 64.126 264.635 63.6666 261.941C63.6241 261.692 63.6557 261.339 63.6885 260.974C63.7333 260.471 63.7803 259.945 63.6376 259.642C63.475 259.296 63.1042 259.075 62.7315 258.852C62.5719 258.757 62.412 258.662 62.268 258.556C61.0303 257.65 59.9342 256.406 59.2664 255.118C58.5973 253.827 58.5506 252.377 58.9395 251.015C58.9709 250.905 59.0004 250.809 59.0267 250.722C59.18 250.221 59.2302 250.057 58.9718 249.452C58.8087 249.07 58.5975 248.707 58.3859 248.344C58.1428 247.926 57.8989 247.507 57.726 247.056C57.1965 245.675 56.9077 244.185 56.9366 242.726C56.9582 241.647 57.292 240.96 57.6598 240.203C57.8499 239.812 58.0487 239.403 58.2184 238.911C58.4535 238.23 58.3559 237.392 58.259 236.559C58.194 235.999 58.1289 235.441 58.1651 234.933C58.2799 233.316 58.7539 232.016 59.5719 230.577C60.8289 228.364 62.8193 225.993 65.4103 224.833C65.6461 224.727 65.9524 224.668 66.2586 224.608C66.6168 224.537 66.9756 224.467 67.2223 224.323C67.6751 224.06 67.7957 223.696 67.9384 223.266C67.9751 223.156 68.013 223.042 68.0583 222.923C68.5894 221.539 69.2525 220.418 70.4009 219.359C74.1257 215.927 80.6525 214.711 85.8868 215.001C86.2242 215.02 86.5557 215.082 86.8833 215.143C87.469 215.253 88.0424 215.36 88.614 215.214C88.9502 215.127 89.2975 214.921 89.6469 214.714C89.9388 214.54 90.232 214.367 90.5215 214.261C91.327 213.966 92.1339 213.794 93.0005 213.719C94.7119 213.57 96.1038 213.727 97.6811 214.232C98.1486 214.382 98.6003 214.542 99.0568 214.704L99.0573 214.704C99.1822 214.749 99.3077 214.793 99.4339 214.838C100.142 215.088 100.278 215.056 100.692 214.959C100.819 214.929 100.974 214.893 101.179 214.858C102.916 214.555 103.914 214.779 105.453 215.427C105.603 215.49 105.785 215.547 105.973 215.606C106.298 215.708 106.641 215.816 106.864 215.969C107.091 216.124 107.257 216.424 107.422 216.723C107.621 217.082 107.819 217.44 108.123 217.546C108.321 217.616 108.784 217.477 109.195 217.354C109.425 217.285 109.639 217.221 109.781 217.201C110.248 217.134 110.708 217.151 111.168 217.168C111.401 217.176 111.633 217.184 111.867 217.182C113.103 217.17 114.409 217.211 115.537 217.721C116.244 218.041 117.071 218.608 117.75 219.074C117.887 219.168 118.018 219.257 118.14 219.34C118.532 219.604 118.867 219.959 119.203 220.316C119.736 220.882 120.274 221.452 121.049 221.672C121.306 221.745 121.574 221.741 121.843 221.738C122.092 221.735 122.342 221.732 122.585 221.79C123.244 221.945 123.877 222.362 124.41 222.73C124.794 222.995 125.152 223.405 125.508 223.813C126.004 224.381 126.495 224.943 127.04 225.093C127.349 225.178 127.743 225.177 128.149 225.176C128.562 225.175 128.988 225.174 129.348 225.264C130.244 225.487 130.987 225.811 131.651 226.403C132.918 227.533 133.276 229.204 133.33 230.736C133.335 230.864 133.31 231.064 133.282 231.289C133.22 231.793 133.141 232.427 133.337 232.681C133.47 232.853 133.798 232.987 134.134 233.124C134.434 233.246 134.74 233.37 134.922 233.527C136.128 234.571 136.672 236.31 136.794 237.739C136.898 238.954 136.657 239.902 136.39 240.952C136.299 241.311 136.205 241.683 136.12 242.081C136.054 242.391 135.982 242.539 135.945 242.615C135.925 242.656 135.915 242.676 135.922 242.69C135.929 242.703 135.951 242.71 135.994 242.723C136.084 242.751 136.264 242.807 136.586 243.003C137.231 243.397 137.677 243.672 138.095 244.289C138.97 245.581 139.19 247.103 139.045 248.575C138.938 249.663 138.52 250.587 138.097 251.522C137.807 252.163 137.515 252.809 137.32 253.516C139.1 253.516 140.992 253.848 142.789 254.163C143.22 254.239 143.646 254.313 144.064 254.382C144.653 254.479 145.143 254.714 145.645 254.953H145.645H145.645C145.822 255.038 145.999 255.123 146.183 255.202C146.567 255.369 146.889 255.443 147.218 255.518C147.413 255.563 147.61 255.608 147.823 255.673L147.863 255.685C148.515 255.884 148.792 255.968 149.013 255.905C149.176 255.858 149.308 255.731 149.538 255.51C149.64 255.412 149.762 255.295 149.915 255.158C153.773 251.7 159.264 249.613 164.802 249.681C167.891 249.718 170.879 250.075 173.767 251.046L173.926 251.1C175.081 251.487 176.341 251.91 177.356 252.514C178.566 253.234 178.763 253.237 180.317 253.266L180.396 253.267C186.284 253.374 191.998 256.137 196.284 259.486C196.604 257.609 199.574 256.359 201.721 255.456C202.143 255.278 202.533 255.114 202.865 254.962C202.994 254.902 203.122 254.848 203.246 254.795C203.784 254.566 204.254 254.366 204.531 253.881C204.716 253.556 204.787 253.03 204.856 252.518V252.517C204.906 252.151 204.954 251.793 205.043 251.519C205.433 250.312 205.884 248.835 205.849 247.562C205.798 245.694 205.522 243.83 205.246 241.965C204.977 240.152 204.708 238.337 204.646 236.517C204.638 236.29 204.625 236.057 204.612 235.821C204.571 235.088 204.528 234.324 204.635 233.63C204.664 233.438 204.711 233.266 204.756 233.103C204.885 232.636 204.991 232.251 204.579 231.743C204.145 231.209 203.561 230.839 202.978 230.47C202.143 229.942 201.31 229.415 200.925 228.407C199.871 225.648 201.681 222.828 204.153 221.187C204.68 220.838 205.202 220.59 205.708 220.35C206.571 219.941 207.39 219.553 208.109 218.718C208.489 218.276 208.849 217.804 209.209 217.329C209.822 216.524 210.439 215.712 211.176 215.03C211.531 214.7 211.876 214.331 212.223 213.957H212.224C212.836 213.299 213.46 212.628 214.178 212.146C215.332 211.37 217.026 210.845 218.404 210.477C221.713 209.592 225.775 209.803 228.103 212.275C230.475 214.795 226.98 218.359 224.997 220.118C224.479 220.577 224.009 221.076 223.538 221.574C223.135 222.002 222.731 222.429 222.298 222.833C221.858 223.242 221.365 223.61 220.879 223.973C220.339 224.376 219.807 224.773 219.368 225.213C219.242 225.339 219.112 225.467 218.982 225.597C218.206 226.367 217.375 227.191 216.749 228.035C216.63 228.195 216.496 228.359 216.36 228.528C215.963 229.018 215.538 229.543 215.367 230.082C215.161 230.732 215.191 230.743 215.348 230.802C215.443 230.837 215.585 230.89 215.75 231.112C215.837 231.229 215.912 231.324 215.979 231.408C216.255 231.758 216.377 231.911 216.499 232.588C216.646 233.404 216.856 234.001 217.36 234.698C217.53 234.933 217.704 235.166 217.877 235.398L217.877 235.398L217.877 235.399L217.878 235.4L217.879 235.401C218.548 236.299 219.209 237.187 219.674 238.194C220.292 239.534 220.767 240.89 221.247 242.261L221.247 242.261V242.261V242.262L221.248 242.262C221.372 242.618 221.497 242.975 221.625 243.333C221.694 243.526 221.756 243.727 221.82 243.93L221.82 243.931L221.82 243.931L221.82 243.932C221.978 244.441 222.141 244.964 222.42 245.41C222.965 246.281 223.05 246.224 223.836 245.697L223.878 245.669C224.498 245.254 225.12 244.832 225.744 244.41L225.746 244.409C227.602 243.151 229.481 241.878 231.403 240.702C232.874 239.801 234.403 238.919 235.955 238.129C236.125 238.043 236.327 237.946 236.547 237.839C237.707 237.279 239.396 236.463 239.845 235.618C240.134 235.073 240.121 234.546 240.108 234.029C240.089 233.283 240.071 232.559 240.967 231.833C241.954 231.034 243.562 230.59 244.848 230.396C246.19 230.193 247.636 230.354 249.032 230.509C249.526 230.564 250.014 230.618 250.489 230.655C252.325 230.799 254.119 230.643 255.92 230.315C256.551 230.2 257.315 229.965 258.14 229.712H258.14C260.916 228.86 264.377 227.798 265.754 230.372C266.365 231.511 266.176 232.747 265.995 233.946C265.944 234.284 265.893 234.619 265.86 234.949C265.733 236.254 265.294 237.639 264.364 238.713C263.478 239.734 262.257 239.949 260.943 240.181H260.943C260.679 240.227 260.412 240.274 260.142 240.329C259.173 240.525 258.191 240.657 257.209 240.79C256.264 240.917 255.319 241.045 254.385 241.229C253.447 241.413 252.522 241.503 251.559 241.542C251.164 241.558 250.687 241.502 250.215 241.446C249.664 241.382 249.119 241.318 248.714 241.369C248.299 241.422 248.208 241.577 248.106 241.751C248.032 241.877 247.953 242.012 247.744 242.126C247.637 242.184 247.472 242.19 247.321 242.195C247.185 242.2 247.06 242.204 246.999 242.246C246.682 242.469 246.571 242.666 246.361 243.034L246.358 243.04L246.356 243.043L246.353 243.048L246.321 243.105L246.297 243.147C245.657 244.264 244.756 245.359 243.893 246.408C243.669 246.68 243.447 246.95 243.233 247.216C243.167 247.298 243.101 247.381 243.033 247.465L242.977 247.535C242.924 247.602 242.871 247.668 242.818 247.736C242.046 248.705 241.189 249.782 240.32 250.601C238.92 251.922 237.546 253.329 236.172 254.736L236.172 254.737C235.408 255.519 234.645 256.301 233.877 257.068C232.783 258.16 231.471 259.323 230.2 260.262C230.065 260.362 229.883 260.458 229.693 260.558V260.558C229.332 260.749 228.946 260.952 228.814 261.218C228.607 261.638 228.959 262.421 229.237 263.043C229.343 263.279 229.438 263.492 229.488 263.652C229.696 264.317 229.817 264.993 229.938 265.666C230.069 266.393 230.199 267.118 230.436 267.825C230.875 269.127 231.034 270.547 231.131 271.905C231.2 272.861 231.294 273.803 231.387 274.738V274.739C231.593 276.804 231.796 278.841 231.718 280.954C231.621 283.602 231.51 286.141 230.458 288.741C229.5 291.107 226.63 293.683 223.961 294.555C222.373 295.074 220.897 295.546 219.299 295.827L219.001 295.879C217.512 296.141 215.958 296.414 214.489 296.781C211.58 297.507 208.515 298.014 205.494 298.263C201.628 298.581 197.595 298.611 193.739 298.494C191.981 298.441 190.173 298.438 188.438 298.442C187.235 298.445 186.08 298.585 184.908 298.726C184.328 298.796 183.743 298.867 183.148 298.921C179.956 299.214 176.674 299.241 173.393 299.268C170.151 299.295 166.91 299.322 163.759 299.604C162.707 299.698 161.656 299.822 160.603 299.946H160.602H160.602C158.518 300.191 156.426 300.437 154.308 300.458C152.709 300.474 151.098 300.43 149.499 300.386C148.244 300.351 146.996 300.316 145.769 300.312C145.577 300.311 145.39 300.313 145.206 300.315C144.544 300.324 143.92 300.331 143.228 300.192C143.093 300.165 142.943 300.116 142.785 300.064L142.785 300.064C142.398 299.936 141.969 299.795 141.634 299.944C141.352 300.07 141.117 300.474 140.915 300.821C140.823 300.98 140.737 301.127 140.658 301.23C140.1 301.951 139.421 302.529 138.704 303.126C135.857 305.497 133.037 306.295 129.301 307.164C127.586 307.563 126.739 307.771 125.299 308.684C124.126 309.427 122.939 309.961 121.589 310.4C118.941 311.259 115.818 310.594 113.329 309.848C112.953 309.735 112.57 309.626 112.184 309.515C111.336 309.272 110.473 309.025 109.626 308.73C108.768 308.431 107.986 308.031 107.205 307.632C106.462 307.251 105.719 306.872 104.912 306.58C105.032 307.553 104.315 308.117 103.623 308.662C103.219 308.981 102.823 309.292 102.609 309.674C102.424 310.004 102.385 310.428 102.346 310.862C102.306 311.309 102.264 311.767 102.061 312.15C101.691 312.852 101.117 313.515 100.223 313.699C99.0052 313.949 96.8275 312.765 95.9718 312.074C95.7827 311.921 95.6017 311.667 95.4156 311.406C95.1343 311.012 94.8413 310.601 94.4909 310.499C93.9775 310.348 93.1745 310.749 92.4865 311.092C92.158 311.256 91.8555 311.407 91.6237 311.479C88.1872 312.539 84.7047 313.039 81.0149 312.616C77.6231 312.228 74.4877 311.237 71.3172 310.235C70.9931 310.133 70.6686 310.031 70.3433 309.929C63.4771 307.774 57.5004 304.228 52.1238 299.959C52.0294 299.884 51.9215 299.811 51.8115 299.737C51.5733 299.577 51.3255 299.411 51.1844 299.198C51.0857 299.049 51.0458 298.789 51.0105 298.559C50.9815 298.37 50.9555 298.201 50.9023 298.132C50.6153 297.762 50.2113 297.749 49.7135 297.732H49.7132C49.6034 297.729 49.4889 297.725 49.3701 297.717C47.3402 297.583 45.7277 297.155 44.1543 295.966C41.6779 294.095 40.7618 289.733 44.558 288.575C45.5284 288.279 46.5964 288.22 47.5996 288.402C47.7667 288.433 48.1175 288.584 48.5022 288.749C49.0698 288.994 49.7112 289.27 49.9456 289.238C50.3702 289.179 50.4335 288.822 50.492 288.492C50.5157 288.358 50.5385 288.23 50.5841 288.126C50.9857 287.219 51.5508 286.42 52.2321 285.65C53.3645 284.369 54.7443 283.082 56.1603 282.04C57.5406 281.024 59.0464 280.515 60.6644 279.968C60.8493 279.906 61.0357 279.843 61.2236 279.779C62.4573 279.356 64.8655 278.631 66.1722 279.009C67.874 279.501 67.0409 281.126 65.9686 281.695C65.2047 282.1 64.3643 282.385 63.5214 282.672C62.6746 282.96 61.8249 283.249 61.0473 283.661C59.7776 284.333 58.5896 285.19 57.4212 286.032C57.0137 286.326 56.6085 286.618 56.2031 286.9C55.6171 287.307 55.0677 287.759 54.5187 288.21C53.8858 288.73 53.2537 289.25 52.5676 289.7C52.2279 289.923 51.6731 290.313 51.5675 290.436C51.5559 290.449 51.5525 290.493 51.5479 290.552C51.5381 290.679 51.5228 290.874 51.408 290.98C51.3836 291.002 51.3603 291.023 51.3379 291.044L51.2799 291.098C51.011 291.346 50.8802 291.467 50.7233 291.505C50.5747 291.54 50.4027 291.501 50.0679 291.425C49.9664 291.402 49.85 291.375 49.7147 291.346C48.3916 291.063 45.2329 290.424 44.3408 291.857C43.5547 293.12 46.6883 294.261 47.8325 294.677L47.9032 294.703C49.2207 295.183 49.6984 295.665 50.4731 296.447C50.6298 296.605 50.7986 296.775 50.989 296.96C51.8052 297.754 53.0011 298.369 54.1443 298.957C54.6252 299.204 55.0966 299.446 55.5267 299.695C57.897 301.067 60.4894 302.138 63.0647 303.202L63.0654 303.202L63.0665 303.203C63.9011 303.547 64.7338 303.891 65.5565 304.245C68.8087 305.641 72.3033 306.648 75.6935 307.626L75.7537 307.643C77.8117 308.236 80.2782 308.873 82.4382 309.055C84.6148 309.24 86.6558 308.93 88.7912 308.567C89.6451 308.422 90.2898 308.31 91.1829 308.035C91.3291 307.99 91.5096 307.959 91.6947 307.928C92.0131 307.873 92.3455 307.816 92.5451 307.68C92.8904 307.446 92.8908 307.245 92.8917 306.947C92.892 306.823 92.8922 306.682 92.9178 306.515C93.231 304.459 94.6326 305.995 95.6045 307.06C95.8097 307.285 95.9958 307.489 96.1484 307.633C96.2876 307.765 96.426 307.903 96.5664 308.043L96.5668 308.043C97.107 308.581 97.6711 309.143 98.3765 309.464C99.4899 309.972 99.6832 309.733 100.048 308.896C100.144 308.675 100.232 308.45 100.319 308.227C100.85 306.866 101.352 305.579 103.569 305.777C103.184 305.488 102.802 305.208 102.424 304.931C100.804 303.744 99.2592 302.612 97.8447 301.128C96.6981 299.924 95.6012 298.662 94.5088 297.404L94.5086 297.403L94.5074 297.402C93.9605 296.772 93.4145 296.143 92.8639 295.524C92.421 295.026 91.997 294.466 91.5653 293.896C90.6778 292.725 89.7582 291.51 88.5768 290.703C88.0217 290.324 86.3343 289.449 85.6919 289.468C85.2063 289.481 84.7481 289.838 84.2802 290.203C83.8218 290.56 83.3539 290.925 82.8413 290.981C81.6976 291.108 81.1708 290.759 80.8442 289.947C80.6639 289.499 80.8089 289.015 80.9427 288.568C81.0605 288.175 81.1697 287.811 81.0417 287.525C81.0054 287.444 80.8765 287.355 80.735 287.258C80.5789 287.15 80.4072 287.033 80.3282 286.903C80.1019 286.531 80.0856 286.043 80.1532 285.632C80.1925 285.393 80.2538 285.21 80.3112 285.039V285.038C80.4016 284.768 80.482 284.528 80.4497 284.15C80.4292 283.912 80.376 283.696 80.3244 283.485C80.2201 283.06 80.1218 282.659 80.3117 282.157C80.5101 281.631 80.9836 281.263 81.4464 280.904C81.6776 280.725 81.906 280.548 82.0965 280.354C82.8267 279.61 82.6255 279.02 82.3362 278.173C82.2828 278.017 82.2266 277.852 82.1724 277.676C81.7842 276.41 81.3625 275.152 80.9404 273.894C80.5547 272.743 80.1688 271.593 79.8087 270.436C79.1061 270.631 78.4098 270.835 77.7141 271.04L77.7135 271.04L77.713 271.04L77.7111 271.041C76.6907 271.341 75.6714 271.641 74.6355 271.906C74.2163 272.014 73.7723 272.118 73.3179 272.226C71.9538 272.547 70.4948 272.891 69.3277 273.4C69.108 273.496 68.9541 273.549 68.8484 273.585C68.7302 273.625 68.6721 273.645 68.6489 273.682C68.6261 273.717 68.6363 273.769 68.6565 273.87C68.6758 273.969 68.7046 274.114 68.7218 274.338C68.7497 274.707 68.8724 275.104 68.9925 275.491C69.0629 275.718 69.1323 275.943 69.1809 276.156C69.2402 276.416 69.2913 276.776 69.3484 277.179C69.5259 278.431 69.7627 280.101 70.4862 280.486C70.7257 280.614 71.0257 280.612 71.3402 280.61C71.7859 280.607 72.2605 280.604 72.6339 280.97C72.9499 281.279 73.0237 281.67 73.0974 282.059C73.1485 282.331 73.1996 282.6 73.3321 282.84C73.4415 283.037 73.6064 283.168 73.7733 283.301C73.9122 283.411 74.0523 283.522 74.162 283.673C74.5718 284.239 74.6132 284.732 74.6619 285.315C74.6731 285.45 74.6847 285.589 74.7014 285.735C74.7177 285.879 74.7219 286.107 74.7265 286.367C74.7379 286.995 74.7528 287.809 74.9505 288.079C75.2158 288.441 75.6663 288.501 76.1287 288.562C76.3164 288.587 76.506 288.613 76.6861 288.659C78.2567 289.058 79.7034 289.753 81.0373 290.563ZM87.3429 268.512C87.052 269.307 85.717 270.207 84.6459 269.728C83.3139 269.134 83.1898 266.788 83.5551 265.786C84.1738 264.09 84.694 266.315 84.8032 266.986C84.8174 267.072 84.826 267.153 84.8341 267.227C84.8675 267.538 84.8899 267.743 85.2497 267.861C85.4073 267.913 85.6298 267.891 85.8647 267.869C86.1382 267.843 86.4289 267.815 86.6542 267.898C87.0141 268.032 87.0743 268.12 87.2476 268.374C87.2757 268.415 87.3068 268.461 87.3429 268.512ZM79.6562 263.463C79.5956 264.579 81.5902 268.02 82.1862 265.526C82.1381 264.782 81.7041 263.469 81.1393 262.887C80.3314 262.054 79.7127 262.433 79.6562 263.463ZM84.8536 262.117C84.8536 261.037 85.6054 260.823 86.5434 261.522C87.5113 262.244 87.8275 263.448 87.9279 264.444C88.0371 265.523 87.755 265.981 86.525 265.288C85.4482 264.681 84.9094 263.064 84.8536 262.117ZM91.2494 269.964C89.5882 269.855 87.6574 272.582 89.6987 272.369C90.4687 272.326 92.0091 271.841 92.2342 271.067C92.4122 270.454 91.9259 270.009 91.2494 269.964ZM103.87 258.954C103.777 257.829 105.759 257.241 106.016 258.434C106.258 259.56 103.404 260.717 103.87 258.954ZM72.4975 276.058C72.5094 274.644 70.5329 272.365 69.8266 274.669C69.9274 275.369 70.2615 277.219 71.3642 277.377C72.2473 277.504 72.4919 276.678 72.4975 276.058Z" fill="black"/>
<path d="M24.6672 52.65C22.4272 53 20.4672 53.21 18.7872 53.21C8.35719 53.21 7.51719 46.28 7.44719 31.65C7.44719 26.61 7.37719 22.41 7.37719 18.91C7.37719 9.95 8.00719 5.96 12.9772 5.89H13.1172C18.6472 5.89 19.6272 11.77 19.6272 18.56C19.6272 22.06 19.3472 25.77 19.3472 29.13C19.3472 34.66 20.0472 39 23.7572 39C24.1072 39 24.4572 39 24.8072 38.93C25.0872 38.86 25.3672 38.86 25.6472 38.86C28.6572 38.86 30.4772 42.08 30.4772 45.37C30.4772 48.59 28.7272 52.02 24.6672 52.65ZM52.718 40.82C53.208 40.75 53.768 40.68 54.188 40.68C57.618 40.68 59.578 43.13 59.578 45.86C59.578 48.73 57.338 51.88 52.158 52.44C49.498 52.72 47.118 52.93 45.088 52.93C31.998 52.93 31.438 46.35 31.438 31.65V25.7C31.438 13.03 32.418 6.03 46.208 6.03C47.748 6.03 49.498 6.1 51.388 6.31C55.028 6.66 56.778 9.18 56.778 11.49C56.778 13.59 55.308 15.62 52.508 15.62C52.228 15.62 51.948 15.62 51.668 15.55C51.108 15.48 50.548 15.41 50.058 15.41C45.788 15.41 44.178 18 44.178 20.31C44.178 22.06 45.088 23.74 46.418 24.02C49.638 24.79 52.298 23.74 52.718 27.94C52.788 28.36 52.788 28.71 52.788 28.99C52.788 32.35 50.898 32.84 47.888 33.19C46.488 33.33 45.508 35.01 45.508 36.76C45.508 38.86 46.838 41.03 50.478 41.03C51.178 41.03 51.878 40.96 52.718 40.82ZM89.1421 12.26C89.2821 14.99 87.9521 17.3 84.9421 17.65C82.3521 17.86 81.5821 19.26 81.1621 21.5C81.0221 22.34 81.0221 23.39 81.0221 24.3C81.0921 25.84 81.0921 27.66 81.0921 29.9C81.5121 40.68 83.8221 52.79 75.0721 52.93C64.1521 53.21 68.6321 36.69 68.6321 28.57C68.6321 26.89 68.4921 24.93 68.2821 22.9C67.8621 19.82 67.0221 18 63.8721 17.93C60.2321 17.72 58.5521 16.39 58.4821 12.89C58.4121 7.92 62.6821 5.26 74.2321 5.47C74.4421 5.47 74.6521 5.47 74.7921 5.47C85.8521 5.75 88.9321 7.99 89.1421 12.26ZM101.062 3.79C100.642 5.42333 100.106 7.19666 99.4523 9.11C98.799 11.0233 98.0757 12.9367 97.2823 14.85C96.5357 16.7167 95.789 18.49 95.0423 20.17H90.4923C90.819 18.8633 91.1457 17.4633 91.4723 15.97C91.8457 14.4767 92.1723 12.9833 92.4523 11.49C92.779 9.95 93.059 8.45666 93.2923 7.01C93.5723 5.56333 93.8057 4.23333 93.9923 3.02H100.572L101.062 3.79ZM110.849 31.44C113.439 32.14 113.859 33.89 113.859 35.57C113.859 36.41 113.789 37.18 113.789 37.88C113.789 38.86 113.999 39.56 114.909 39.77C115.049 39.77 115.189 39.84 115.329 39.84C116.519 39.84 117.639 38.58 117.639 36.83C117.639 35.99 117.359 35.01 116.729 34.03C114.139 30.04 108.959 28.57 104.969 22.76C103.849 21.08 103.149 18.98 103.149 16.81C103.149 11.84 106.579 6.59 115.469 6.03C115.889 6.03 116.239 5.96 116.659 5.96C124.499 5.96 129.539 10.79 129.539 15.55C129.539 17.23 128.839 18.98 127.369 20.45C126.879 20.94 125.549 21.36 124.079 21.36C121.769 21.36 119.109 20.38 119.039 17.37C119.039 15.2 117.989 14.36 117.009 14.36C115.959 14.36 114.909 15.27 114.909 16.6C114.909 16.88 114.979 17.16 115.049 17.51C116.519 21.99 124.849 24.02 129.609 33.75C130.659 35.85 131.149 38.09 131.149 40.26C131.149 46.98 126.039 53.07 115.959 53.07C111.969 53.07 105.529 51.95 103.079 44.25C102.589 42.64 102.379 41.17 102.379 39.77C102.379 34.73 105.389 31.23 109.169 31.23C109.729 31.23 110.289 31.3 110.849 31.44ZM154.667 31.44C157.257 32.14 157.677 33.89 157.677 35.57C157.677 36.41 157.607 37.18 157.607 37.88C157.607 38.86 157.817 39.56 158.727 39.77C158.867 39.77 159.007 39.84 159.147 39.84C160.337 39.84 161.457 38.58 161.457 36.83C161.457 35.99 161.177 35.01 160.547 34.03C157.957 30.04 152.777 28.57 148.787 22.76C147.667 21.08 146.967 18.98 146.967 16.81C146.967 11.84 150.397 6.59 159.287 6.03C159.707 6.03 160.057 5.96 160.477 5.96C168.317 5.96 173.357 10.79 173.357 15.55C173.357 17.23 172.657 18.98 171.187 20.45C170.697 20.94 169.367 21.36 167.897 21.36C165.587 21.36 162.927 20.38 162.857 17.37C162.857 15.2 161.807 14.36 160.827 14.36C159.777 14.36 158.727 15.27 158.727 16.6C158.727 16.88 158.797 17.16 158.867 17.51C160.337 21.99 168.667 24.02 173.427 33.75C174.477 35.85 174.967 38.09 174.967 40.26C174.967 46.98 169.857 53.07 159.777 53.07C155.787 53.07 149.347 51.95 146.897 44.25C146.407 42.64 146.197 41.17 146.197 39.77C146.197 34.73 149.207 31.23 152.987 31.23C153.547 31.23 154.107 31.3 154.667 31.44ZM204.738 12.26C204.878 14.99 203.548 17.3 200.538 17.65C197.948 17.86 197.178 19.26 196.758 21.5C196.618 22.34 196.618 23.39 196.618 24.3C196.688 25.84 196.688 27.66 196.688 29.9C197.108 40.68 199.418 52.79 190.668 52.93C179.748 53.21 184.228 36.69 184.228 28.57C184.228 26.89 184.088 24.93 183.878 22.9C183.458 19.82 182.618 18 179.468 17.93C175.828 17.72 174.148 16.39 174.078 12.89C174.008 7.92 178.278 5.26 189.828 5.47C190.038 5.47 190.248 5.47 190.388 5.47C201.448 5.75 204.528 7.99 204.738 12.26ZM236.113 42.01C234.083 48.73 228.343 52.65 222.463 52.65C217.213 52.65 211.823 49.5 209.023 42.43C207.273 38.09 206.153 30.81 206.153 23.81C206.153 14.43 208.253 5.61 213.783 5.61H213.853C219.453 5.61 220.223 13.03 220.223 20.66C220.223 23.46 220.083 26.26 220.083 28.78C220.083 33.54 220.433 37.18 222.603 37.25H222.673C224.353 37.25 224.773 34.87 224.773 31.44C224.773 27.52 224.213 22.2 224.213 17.37C224.213 11 225.263 5.54 230.093 5.54H230.303C235.903 5.68 237.793 16.32 237.793 26.47C237.793 32.56 237.093 38.58 236.113 42.01ZM262.109 11.07C267.219 15.76 269.879 23.39 269.879 30.67C269.879 33.26 269.529 35.85 268.829 38.23C265.889 48.03 257.839 53.07 250.279 53.07C249.229 53.07 248.179 53 247.129 52.79C242.299 51.81 241.109 48.66 241.109 44.11C241.109 39.77 242.159 34.17 242.159 28.01C242.159 24.16 241.739 20.1 240.479 15.97C240.129 14.85 239.989 13.87 239.989 12.96C239.989 8.27 244.049 5.96 249.089 5.96C253.429 5.96 258.469 7.71 262.109 11.07ZM255.319 34.94C257.139 34.03 258.049 31.02 258.049 27.87C258.049 24.3 256.859 20.66 254.479 20.03C254.269 19.96 254.129 19.96 253.989 19.96C253.289 19.96 253.079 20.45 253.079 21.43C253.079 22.69 253.429 24.79 253.429 27.73V28.22C253.429 29.97 253.359 31.51 253.359 32.7C253.359 34.31 253.499 35.22 254.339 35.22C254.619 35.22 254.899 35.15 255.319 34.94ZM291.566 34.24V34.66C291.566 38.72 291.916 42.36 291.916 45.3C291.916 50.06 290.936 53 285.616 53.07H285.546C280.016 53.07 279.316 48.24 279.316 43.13C279.316 41.38 279.386 39.63 279.386 38.02C279.386 36.76 279.316 35.57 279.176 34.59C278.266 29.27 269.796 19.4 269.796 12.54C269.796 10.23 270.846 8.27 273.436 6.94C274.836 6.24 276.096 5.89 277.076 5.89C284.566 5.89 282.256 22.69 285.336 22.69H285.406C288.276 22.55 286.036 5.96 293.456 5.96C294.226 5.96 295.136 6.1 296.116 6.52C299.266 7.78 300.386 9.81 300.386 12.19C300.386 18.77 291.636 28.36 291.566 34.24ZM72.303 110.82C72.793 110.75 73.353 110.68 73.773 110.68C77.203 110.68 79.163 113.13 79.163 115.86C79.163 118.73 76.923 121.88 71.743 122.44C69.083 122.72 66.703 122.93 64.673 122.93C51.583 122.93 51.023 116.35 51.023 101.65V95.7C51.023 83.03 52.003 76.03 65.793 76.03C67.333 76.03 69.083 76.1 70.973 76.31C74.613 76.66 76.363 79.18 76.363 81.49C76.363 83.59 74.893 85.62 72.093 85.62C71.813 85.62 71.533 85.62 71.253 85.55C70.693 85.48 70.133 85.41 69.643 85.41C65.373 85.41 63.763 88 63.763 90.31C63.763 92.06 64.673 93.74 66.003 94.02C69.223 94.79 71.883 93.74 72.303 97.94C72.373 98.36 72.373 98.71 72.373 98.99C72.373 102.35 70.483 102.84 67.473 103.19C66.073 103.33 65.093 105.01 65.093 106.76C65.093 108.86 66.423 111.03 70.063 111.03C70.763 111.03 71.463 110.96 72.303 110.82ZM89.8008 123.07C89.3808 123.14 88.9608 123.21 88.6108 123.21C82.3808 123.21 79.6508 113.13 79.6508 102.35C79.6508 90.52 82.9408 77.78 88.6808 76.45C89.1008 76.38 89.4508 76.31 89.8008 76.31C97.2208 76.31 95.0508 96.54 98.9708 96.54H99.1108C99.9508 96.4 100.231 95.56 100.231 94.16C100.231 91.36 98.9708 86.46 98.9708 82.47C98.9708 79.32 99.7408 76.66 102.611 76.1C102.891 76.03 103.241 76.03 103.521 76.03C109.261 76.03 112.411 87.93 112.411 99.76C112.411 111.45 109.331 123.07 102.681 123.07H102.401C94.4908 122.65 95.2608 101.3 91.2708 101.3C91.2008 101.3 91.0608 101.3 90.9208 101.37C90.3608 101.51 90.1508 102.07 90.1508 102.84C90.1508 105.85 93.7208 112.92 93.7208 117.89C93.7208 120.48 92.7408 122.51 89.8008 123.07ZM133.591 123.07H133.171C121.691 123.07 116.301 111.94 116.301 100.46C116.301 88.35 122.321 75.89 133.311 75.89C141.431 75.89 145.141 81.84 145.141 86.6C145.141 89.82 143.461 92.55 140.171 92.55C139.681 92.55 139.121 92.48 138.491 92.34C134.571 91.36 136.881 86.95 134.641 86.25C134.361 86.18 134.081 86.11 133.801 86.11C130.861 86.11 129.321 91.64 129.321 97.24C129.321 103.12 131.001 109.14 134.361 109.14C134.641 109.14 134.851 109.14 135.131 109.07C136.461 108.72 137.231 106.69 137.231 104.94C137.231 104.38 137.091 103.82 136.951 103.4C136.601 102.49 135.971 102.42 135.201 102.42H134.711C134.011 102.42 133.311 102.35 132.821 101.65C132.541 101.23 132.191 100.25 132.191 99.27C132.191 97.66 132.961 96.05 135.761 95.98C136.741 95.98 137.721 95.91 138.701 95.91C142.411 95.91 145.911 96.4 146.891 99.69C147.521 101.79 147.871 104.1 147.871 106.48C147.871 114.46 143.951 122.79 133.591 123.07ZM167.436 122.65C165.196 123 163.236 123.21 161.556 123.21C151.126 123.21 150.286 116.28 150.216 101.65C150.216 96.61 150.146 92.41 150.146 88.91C150.146 79.95 150.776 75.96 155.746 75.89H155.886C161.416 75.89 162.396 81.77 162.396 88.56C162.396 92.06 162.116 95.77 162.116 99.13C162.116 104.66 162.816 109 166.526 109C166.876 109 167.226 109 167.576 108.93C167.856 108.86 168.136 108.86 168.416 108.86C171.426 108.86 173.246 112.08 173.246 115.37C173.246 118.59 171.496 122.02 167.436 122.65ZM181.887 123.07H181.817C176.077 123.07 174.957 117.26 174.957 110.89C174.957 106.62 175.447 102.07 175.447 98.78C175.447 95.14 174.677 90.17 174.677 85.76C174.677 80.44 175.797 76.03 180.977 75.89H181.117C187.067 75.89 187.907 81.98 187.907 88.77C187.907 91.57 187.767 94.51 187.767 97.17C187.767 102.07 188.397 107.53 188.397 112.15C188.397 118.31 187.277 123 181.887 123.07ZM199.066 101.44C201.656 102.14 202.076 103.89 202.076 105.57C202.076 106.41 202.006 107.18 202.006 107.88C202.006 108.86 202.216 109.56 203.126 109.77C203.266 109.77 203.406 109.84 203.546 109.84C204.736 109.84 205.856 108.58 205.856 106.83C205.856 105.99 205.576 105.01 204.946 104.03C202.356 100.04 197.176 98.57 193.186 92.76C192.066 91.08 191.366 88.98 191.366 86.81C191.366 81.84 194.796 76.59 203.686 76.03C204.106 76.03 204.456 75.96 204.876 75.96C212.716 75.96 217.756 80.79 217.756 85.55C217.756 87.23 217.056 88.98 215.586 90.45C215.096 90.94 213.766 91.36 212.296 91.36C209.986 91.36 207.326 90.38 207.256 87.37C207.256 85.2 206.206 84.36 205.226 84.36C204.176 84.36 203.126 85.27 203.126 86.6C203.126 86.88 203.196 87.16 203.266 87.51C204.736 91.99 213.066 94.02 217.826 103.75C218.876 105.85 219.366 108.09 219.366 110.26C219.366 116.98 214.256 123.07 204.176 123.07C200.186 123.07 193.746 121.95 191.296 114.25C190.806 112.64 190.596 111.17 190.596 109.77C190.596 104.73 193.606 101.23 197.386 101.23C197.946 101.23 198.506 101.3 199.066 101.44ZM233.921 121.74C232.521 122.58 230.771 123.21 229.091 123.21C227.131 123.21 225.311 122.37 224.331 120.34C221.951 115.23 220.971 107.6 220.971 100.04C220.971 92.27 222.021 84.57 223.701 79.74C224.611 77.15 226.711 76.24 228.811 76.24C230.841 76.24 232.801 77.08 233.641 77.92C235.251 79.46 235.531 82.19 235.531 84.99C235.531 86.81 235.391 88.7 235.391 90.31C235.391 93.25 235.811 95.49 238.051 95.49H238.121C240.571 95.49 241.131 92.97 241.131 89.75C241.131 87.23 240.781 84.36 240.781 81.98C240.781 79.95 240.991 78.2 241.831 77.36C242.811 76.24 244.281 75.82 245.821 75.82C248.201 75.82 250.721 76.94 251.771 78.62C254.571 83.17 255.971 91.64 255.971 100.25C255.971 106.83 255.201 113.48 253.661 118.66C252.751 121.81 250.091 122.93 247.571 122.93C245.261 122.93 243.091 122.02 242.251 120.97C241.481 119.99 241.271 118.52 241.271 116.91C241.271 114.6 241.691 111.94 241.691 109.77C241.691 107.53 241.201 105.85 239.311 105.78H239.171C236.931 105.78 236.441 107.25 236.441 109.35C236.441 111.1 236.791 113.27 236.791 115.37C236.791 117.89 236.231 120.34 233.921 121.74ZM116.167 192.23C113.297 190.2 112.737 186.98 112.737 183.97C112.737 182.01 112.947 180.12 112.947 178.72C112.947 177.11 112.667 176.13 111.547 176.06H111.477C108.047 176.06 110.777 188.73 106.507 192.16C105.807 192.72 104.407 193.21 102.867 193.21C100.277 193.21 97.0573 191.88 95.5873 187.89C93.9073 183.41 92.2973 173.05 92.2973 163.74C92.2973 154.29 93.9773 145.89 99.1573 145.89H99.2973C104.407 146.03 105.877 148.9 105.877 152.47C105.877 157.09 103.357 162.97 103.357 165.56C103.357 166.19 103.567 166.68 103.987 166.82C104.057 166.82 104.197 166.89 104.267 166.89C106.857 166.89 105.247 153.17 110.497 153.17H110.567C115.747 153.17 114.417 166.47 117.707 166.47H117.847C118.477 166.4 118.757 165.91 118.757 165C118.757 162.34 116.237 156.39 116.237 151.84C116.237 148.48 117.567 145.89 122.257 145.89C122.607 145.89 122.957 145.96 123.377 145.96C127.997 146.38 129.887 154.92 129.887 164.79C129.887 172.77 128.627 181.59 126.457 187.4C124.847 191.81 121.767 193.07 119.317 193.07C117.987 193.07 116.797 192.72 116.167 192.23ZM139.778 193.07H139.708C133.968 193.07 132.848 187.26 132.848 180.89C132.848 176.62 133.338 172.07 133.338 168.78C133.338 165.14 132.568 160.17 132.568 155.76C132.568 150.44 133.688 146.03 138.868 145.89H139.008C144.958 145.89 145.798 151.98 145.798 158.77C145.798 161.57 145.658 164.51 145.658 167.17C145.658 172.07 146.288 177.53 146.288 182.15C146.288 188.31 145.168 193 139.778 193.07ZM177.975 152.26C178.115 154.99 176.785 157.3 173.775 157.65C171.185 157.86 170.415 159.26 169.995 161.5C169.855 162.34 169.855 163.39 169.855 164.3C169.925 165.84 169.925 167.66 169.925 169.9C170.345 180.68 172.655 192.79 163.905 192.93C152.985 193.21 157.465 176.69 157.465 168.57C157.465 166.89 157.325 164.93 157.115 162.9C156.695 159.82 155.855 158 152.705 157.93C149.065 157.72 147.385 156.39 147.315 152.89C147.245 147.92 151.515 145.26 163.065 145.47C163.275 145.47 163.485 145.47 163.625 145.47C174.685 145.75 177.765 147.99 177.975 152.26ZM192.017 191.74C190.617 192.58 188.867 193.21 187.187 193.21C185.227 193.21 183.407 192.37 182.427 190.34C180.047 185.23 179.067 177.6 179.067 170.04C179.067 162.27 180.117 154.57 181.797 149.74C182.707 147.15 184.807 146.24 186.907 146.24C188.937 146.24 190.897 147.08 191.737 147.92C193.347 149.46 193.627 152.19 193.627 154.99C193.627 156.81 193.487 158.7 193.487 160.31C193.487 163.25 193.907 165.49 196.147 165.49H196.217C198.667 165.49 199.227 162.97 199.227 159.75C199.227 157.23 198.877 154.36 198.877 151.98C198.877 149.95 199.087 148.2 199.927 147.36C200.907 146.24 202.377 145.82 203.917 145.82C206.297 145.82 208.817 146.94 209.867 148.62C212.667 153.17 214.067 161.64 214.067 170.25C214.067 176.83 213.297 183.48 211.757 188.66C210.847 191.81 208.187 192.93 205.667 192.93C203.357 192.93 201.187 192.02 200.347 190.97C199.577 189.99 199.367 188.52 199.367 186.91C199.367 184.6 199.787 181.94 199.787 179.77C199.787 177.53 199.297 175.85 197.407 175.78H197.267C195.027 175.78 194.537 177.25 194.537 179.35C194.537 181.1 194.887 183.27 194.887 185.37C194.887 187.89 194.327 190.34 192.017 191.74Z" fill="#AC0000"/>
<path d="M100.794 392.307C116.402 392.307 126.364 369.042 126.364 353.028C126.364 342.571 122.23 336.062 115.304 335.613H114.268C102.298 335.61 101.877 350.286 101.691 359.815C101.637 362.56 101.745 367.418 100.825 367.418C99.9046 367.418 99.835 362.471 99.6765 360.062C99.3555 355.112 98.9958 349.501 97.4489 344.957C94.9043 337.474 90.3526 335.536 86.671 335.536C86.2069 335.536 85.6307 335.536 85.0042 335.637C78.3061 336.399 74.4659 342.652 74.4659 352.803C74.4659 368.91 84.7219 392.311 100.794 392.311V392.307Z" fill="#AA1E23"/>
<path d="M66.1824 354.521C63.9935 352.572 61.3135 351.678 58.2275 351.864L57.8639 351.891C57.8562 351.891 57.8446 351.891 57.8369 351.891V351.902C50.6902 352.796 47.4147 357.177 48.103 364.923C48.2964 367.081 48.598 371.084 48.8919 374.951C49.182 378.757 49.4798 382.693 49.6693 384.786C50.0753 389.345 52.4111 391.793 54.2983 393.046C56.1972 394.303 58.5832 394.972 61.1318 394.972C61.5649 394.972 62.0058 394.953 62.4466 394.914C65.3896 394.651 68.2204 392.973 70.212 390.308C72.2307 387.605 73.1743 384.225 72.8688 380.783C72.8263 380.284 72.7992 379.41 72.7722 378.393C72.602 371.946 72.281 359.95 66.1824 354.517V354.521Z" fill="#AA1E23"/>
<path d="M49.8201 346.705C52.1521 348.901 55.474 350.166 59.0512 349.903C65.5366 349.431 70.4557 344.141 70.0187 338.112C69.5817 332.083 63.9471 327.562 57.4618 328.034C50.9764 328.506 46.0573 333.796 46.4943 339.825C46.6915 342.524 47.929 344.922 49.8162 346.705H49.8201Z" fill="#AA1E23"/>
<path d="M242.917 335.379C242.399 335.363 241.761 335.344 241.154 335.433C237.743 335.824 233.655 337.711 233.454 344.486C233.373 347.228 237.337 359.34 234.827 359.263C232.317 359.189 232.731 354.584 232.147 351.509C230.856 344.668 229.084 335.298 220.661 335.05C220.066 335.031 219.501 335.085 218.906 335.139L218.538 335.174C213.538 335.862 209.211 339.764 206.024 346.462C203.321 352.143 201.646 359.599 201.43 366.92C200.954 382.911 207.064 393.438 216.988 393.732C217.664 393.751 218.415 393.681 219.169 393.616C225.743 392.908 227.232 389.068 227.321 385.97C227.429 382.296 224.223 378.429 222.653 374.639C221.644 372.21 219.76 368.722 222.065 368.115C224.37 367.508 225.472 373.061 226.447 376.557C228.585 384.218 230.535 393.635 239.282 394.231L239.804 394.246C249.933 394.548 255.819 384.28 256.379 365.342C256.936 346.575 252.025 335.653 242.91 335.383L242.917 335.379Z" fill="#AA1E23"/>
<path d="M291.962 342.519C274.501 337.886 261.244 349.87 257.628 363.491C254.198 376.431 258.982 391.675 277.406 396.564L278.059 396.738C281.903 397.677 285.519 397.979 288.818 397.658C291.931 397.352 294.762 396.486 297.217 395.067C301.556 392.565 304.693 388.365 306.05 383.245C306.777 380.507 306.955 377.691 306.58 374.88C305.942 370.019 300.938 368.708 295.64 367.323L294.568 367.041C293.83 366.844 293.087 366.67 292.341 366.492C291.625 366.322 290.914 366.152 290.171 365.958C288.296 365.498 282.584 364.094 281.431 368.445C281.029 369.972 281.358 371.643 281.853 372.587C282.804 374.296 286.401 374.513 286.71 376.435C287.019 378.357 285.925 378.84 284.881 378.763C284.622 378.743 284.436 378.693 284.046 378.592C280.349 377.61 278.647 371.624 280.062 366.287C280.936 362.988 282.429 359.086 284.602 358.185C286.772 357.284 287.561 358.839 288.156 360.181C288.907 361.871 289.932 364.179 293.779 365.626C294.75 366.055 295.616 366.368 296.425 366.581C300.806 367.741 306.193 366.445 307.674 360.861C308.552 357.547 307.636 353.776 305.157 350.52C303.204 347.952 299.329 344.48 291.958 342.527L291.962 342.519Z" fill="#AA1E23"/>
<path d="M198.346 374.609C198.445 371.281 198.544 367.838 198.625 365.984C198.917 359.215 195.624 355.308 188.829 354.373L188.831 354.366L188.458 354.328C185.281 354.082 182.612 354.936 180.514 356.876C175.248 361.746 175.502 371.854 175.641 377.282C175.663 378.142 175.681 378.882 175.666 379.292C175.417 385.014 179.506 390.368 184.829 391.639C185.265 391.743 185.712 391.822 186.166 391.867C189.739 392.239 192.907 391.409 195.095 389.526C196.932 387.941 197.964 385.686 198.081 382.999C198.157 381.212 198.251 378.006 198.35 374.61L198.346 374.609Z" fill="#AA1E23"/>
<path d="M184.22 352.429C186.823 353.051 189.601 352.772 192.142 351.622C198.064 348.936 200.852 342.271 198.353 336.767C195.856 331.261 189.008 328.966 183.087 331.651C177.166 334.336 174.377 341.002 176.876 346.505C178.098 349.198 180.377 351.209 183.297 352.165C183.603 352.266 183.913 352.352 184.225 352.427L184.22 352.429Z" fill="#AA1E23"/>
<path d="M166.518 336.893C158.435 331.566 146.243 331.788 139.729 334.343C133.216 336.898 129.066 341.552 128.185 348.447C127.303 355.342 132.49 360.063 133.875 361.509C133.083 361.827 131.408 362.76 128.811 365.499C123.422 371.182 122.203 378.769 125.636 385.297C129.583 392.804 138.402 396.668 148.105 395.14C149.615 394.904 151.077 394.658 152.495 394.367C156.566 393.527 160.259 392.304 163.501 389.784C168.534 385.865 170.98 380.776 170.768 374.663C170.677 372.773 170.064 370.946 168.915 369.258C165.133 363.717 157.01 364.545 154.299 368.602C152.358 371.508 143.469 376.463 142.786 373.951C142.102 371.439 144.86 371.147 147.132 370.219C149.404 369.292 152.208 368.378 154.278 365.275C155.129 363.836 155.398 362.441 155.077 361.132C154.753 359.827 153.987 358.743 152.771 357.892C152.504 357.744 151.469 357.164 149.664 356.15C149.633 356.119 149.594 356.088 149.544 356.059L149.552 356.027L148.336 355.402C147.995 355.225 145.576 353.665 145.432 352.37C145.391 352.032 145.523 351.74 145.835 351.476C146.219 351.146 146.643 351.005 147.123 351.045C148.126 351.127 149.31 351.974 150.66 353.576C156.987 360.201 163.804 362.155 169.36 358.925C172.283 357.226 174.126 353.016 173.94 348.45C173.729 343.26 170.69 339.648 166.519 336.901L166.518 336.893Z" fill="#AA1E23"/>
<path d="M32.7978 398.107C35.5745 397.28 37.9799 395.656 40.0256 393.246C42.5084 390.365 43.5139 387.155 43.046 383.613C42.7056 381.474 41.3482 379.096 38.9738 376.474C38.3743 375.836 37.2838 374.645 35.7021 372.897C36.9705 372.321 42.9879 370.507 43.2084 365.584C43.278 364.025 42.9802 362.606 42.0366 361.334C41.093 360.062 39.7356 359.369 37.9644 359.253C35.7562 359.149 33.432 359.818 30.9879 361.26C30.5006 361.527 29.7891 361.995 28.8609 362.672C27.9328 363.349 27.2212 363.821 26.7339 364.083C26.0262 364.524 25.3727 364.667 24.781 364.505C24.1893 364.346 23.7136 363.937 23.3578 363.279C22.8319 362.432 22.7197 361.616 23.0214 360.827C23.323 360.042 23.849 359.474 24.607 359.118C25.3649 358.762 26.119 358.522 26.8732 358.395C31.2895 356.917 41.1587 358.259 44.4652 348.827C48.8778 336.239 34.4607 331.053 23.76 334.167C17.6421 335.945 6.38839 339.751 1.20629 354.288C-6.01771 374.548 21.0762 404.558 32.8016 398.107H32.7978Z" fill="#AA1E23"/>
</svg>
