<svg width="21" height="22" viewBox="0 0 21 22" fill="none" xmlns="http://www.w3.org/2000/svg">
<path fill-rule="evenodd" clip-rule="evenodd" d="M18.0378 1.02015C17.0731 0.0595024 15.5097 0.060091 14.5457 1.02146L7.0903 8.45839C6.49401 9.0531 6.14344 9.8492 6.10796 10.6892L6.00182 13.2019C5.9535 14.346 6.87116 15.2999 8.02025 15.2999L10.4924 15.3C11.4 15.3001 12.2692 14.935 12.9029 14.2875L20.2984 6.70809C21.2425 5.74349 21.2326 4.20157 20.2761 3.24912L18.0378 1.02015ZM15.4985 1.97023C15.9366 1.53324 16.6473 1.53297 17.0858 1.96963L19.3241 4.19861C19.7588 4.63154 19.7634 5.33241 19.3342 5.77086L17.8489 7.28842L14.0046 3.46013L15.4985 1.97023ZM13.0526 4.40961L8.04304 9.40716C7.68526 9.76398 7.47492 10.2416 7.45363 10.7456L7.3475 13.2583C7.33139 13.6397 7.63728 13.9577 8.02031 13.9577L10.4924 13.9578C11.037 13.9578 11.5585 13.7387 11.9388 13.3502L16.9084 8.24936L13.0526 4.40961Z" fill="#AC0000"/>
<path d="M19 11.3V15.3C19 18.0615 16.7614 20.3 14 20.3H6C3.23858 20.3 1 18.0615 1 15.3V7.30005C1 4.53863 3.23858 2.30005 6 2.30005H10" stroke="#AC0000" stroke-width="1.5" stroke-linecap="round"/>
</svg>
