<svg width="24" height="25" viewBox="0 0 24 25" fill="none" xmlns="http://www.w3.org/2000/svg">
<path fill-rule="evenodd" clip-rule="evenodd" d="M20.0378 3.02015C19.0731 2.0595 17.5097 2.06009 16.5457 3.02146L9.0903 10.4584C8.49401 11.0531 8.14344 11.8492 8.10796 12.6892L8.00182 15.2019C7.9535 16.346 8.87116 17.2999 10.0203 17.2999L12.4924 17.3C13.4 17.3001 14.2692 16.935 14.9029 16.2875L22.2984 8.70809C23.2425 7.74349 23.2326 6.20157 22.2761 5.24912L20.0378 3.02015ZM17.4985 3.97023C17.9366 3.53324 18.6473 3.53297 19.0858 3.96963L21.3241 6.19861C21.7588 6.63154 21.7634 7.33241 21.3342 7.77086L19.8489 9.28842L16.0046 5.46013L17.4985 3.97023ZM15.0526 6.40961L10.043 11.4072C9.68526 11.764 9.47492 12.2416 9.45363 12.7456L9.3475 15.2583C9.33139 15.6397 9.63728 15.9577 10.0203 15.9577L12.4924 15.9578C13.037 15.9578 13.5585 15.7387 13.9388 15.3502L18.9084 10.2494L15.0526 6.40961Z" fill="#AC0000" fill-opacity="0.3"/>
<path d="M21 13.3V17.3C21 20.0615 18.7614 22.3 16 22.3H8C5.23858 22.3 3 20.0615 3 17.3V9.30005C3 6.53863 5.23858 4.30005 8 4.30005H12" stroke="#AC0000" stroke-opacity="0.3" stroke-width="1.5" stroke-linecap="round"/>
</svg>
