<svg width="150" height="150" viewBox="0 0 150 150" fill="none" xmlns="http://www.w3.org/2000/svg">
<circle cx="75" cy="75" r="74" fill="#AC0000" stroke="#F5F4F0" stroke-width="2"/>
<mask id="path-2-outside-1_26_1013" maskUnits="userSpaceOnUse" x="53" y="38" width="38" height="75" fill="black">
<rect fill="white" x="53" y="38" width="38" height="75"/>
<path d="M88.5742 40.2969V111H71.875V55.9219H71.4844L55.5664 65.6875V51.2344L73.0469 40.2969H88.5742Z"/>
</mask>
<path d="M88.5742 40.2969V111H71.875V55.9219H71.4844L55.5664 65.6875V51.2344L73.0469 40.2969H88.5742Z" fill="#F5F4F0"/>
<path d="M88.5742 40.2969H90.5742V38.2969H88.5742V40.2969ZM88.5742 111V113H90.5742V111H88.5742ZM71.875 111H69.875V113H71.875V111ZM71.875 55.9219H73.875V53.9219H71.875V55.9219ZM71.4844 55.9219V53.9219H70.9198L70.4385 54.2171L71.4844 55.9219ZM55.5664 65.6875H53.5664V69.2609L56.6123 67.3923L55.5664 65.6875ZM55.5664 51.2344L54.5056 49.5389L53.5664 50.1265V51.2344H55.5664ZM73.0469 40.2969V38.2969H72.4727L71.986 38.6014L73.0469 40.2969ZM86.5742 40.2969V111H90.5742V40.2969H86.5742ZM88.5742 109H71.875V113H88.5742V109ZM73.875 111V55.9219H69.875V111H73.875ZM71.875 53.9219H71.4844V57.9219H71.875V53.9219ZM70.4385 54.2171L54.5205 63.9827L56.6123 67.3923L72.5302 57.6266L70.4385 54.2171ZM57.5664 65.6875V51.2344H53.5664V65.6875H57.5664ZM56.6273 52.9298L74.1077 41.9923L71.986 38.6014L54.5056 49.5389L56.6273 52.9298ZM73.0469 42.2969H88.5742V38.2969H73.0469V42.2969Z" fill="#F5F4F0" mask="url(#path-2-outside-1_26_1013)"/>
</svg>
