<svg width="150" height="150" viewBox="0 0 150 150" fill="none" xmlns="http://www.w3.org/2000/svg">
<circle cx="75" cy="75" r="74" fill="#AC0000" stroke="#F5F4F0" stroke-width="2"/>
<mask id="path-2-outside-1_26_1021" maskUnits="userSpaceOnUse" x="46" y="37" width="58" height="76" fill="black">
<rect fill="white" x="46" y="37" width="58" height="76"/>
<path d="M49.2676 111V98.9883L75.0488 76.332C81.0059 70.8633 84.4238 67.25 84.5215 61.8789C84.4238 56.0195 80.127 52.3086 74.1699 52.3086C68.1152 52.3086 64.1113 56.1172 64.1113 62.5625H48.291C48.291 48.3047 58.7402 39.3203 74.2676 39.3203C90.1855 39.3203 100.635 47.9141 100.635 60.6094C100.635 68.7148 96.6309 75.4531 81.2988 88.832L72.4121 97.0352V97.5234H101.514V111H49.2676Z"/>
</mask>
<path d="M49.2676 111V98.9883L75.0488 76.332C81.0059 70.8633 84.4238 67.25 84.5215 61.8789C84.4238 56.0195 80.127 52.3086 74.1699 52.3086C68.1152 52.3086 64.1113 56.1172 64.1113 62.5625H48.291C48.291 48.3047 58.7402 39.3203 74.2676 39.3203C90.1855 39.3203 100.635 47.9141 100.635 60.6094C100.635 68.7148 96.6309 75.4531 81.2988 88.832L72.4121 97.0352V97.5234H101.514V111H49.2676Z" fill="#F5F4F0"/>
<path d="M49.2676 111H47.2676V113H49.2676V111ZM49.2676 98.9883L47.9473 97.486L47.2676 98.0833V98.9883H49.2676ZM75.0488 76.332L76.3691 77.8344L76.3854 77.82L76.4014 77.8053L75.0488 76.332ZM84.5215 61.8789L86.5212 61.9153L86.5218 61.8804L86.5212 61.8456L84.5215 61.8789ZM64.1113 62.5625V64.5625H66.1113V62.5625H64.1113ZM48.291 62.5625H46.291V64.5625H48.291V62.5625ZM81.2988 88.832L79.9839 87.3251L79.9628 87.3435L79.9423 87.3624L81.2988 88.832ZM72.4121 97.0352L71.0555 95.5655L70.4121 96.1595V97.0352H72.4121ZM72.4121 97.5234H70.4121V99.5234H72.4121V97.5234ZM101.514 97.5234H103.514V95.5234H101.514V97.5234ZM101.514 111V113H103.514V111H101.514ZM51.2676 111V98.9883H47.2676V111H51.2676ZM50.5878 100.491L76.3691 77.8344L73.7286 74.8297L47.9473 97.486L50.5878 100.491ZM76.4014 77.8053C82.2482 72.4378 86.4056 68.27 86.5212 61.9153L82.5218 61.8425C82.442 66.23 79.7636 69.2888 73.6963 74.8587L76.4014 77.8053ZM86.5212 61.8456C86.4639 58.4083 85.1592 55.4756 82.8863 53.4148C80.6299 51.369 77.5616 50.3086 74.1699 50.3086V54.3086C76.7353 54.3086 78.7939 55.1037 80.1996 56.3782C81.5888 57.6377 82.4814 59.4902 82.5218 61.9122L86.5212 61.8456ZM74.1699 50.3086C70.7192 50.3086 67.6582 51.402 65.4559 53.6043C63.2517 55.8086 62.1113 58.9196 62.1113 62.5625H66.1113C66.1113 59.7601 66.9729 57.7442 68.2843 56.4328C69.5976 55.1195 71.566 54.3086 74.1699 54.3086V50.3086ZM64.1113 60.5625H48.291V64.5625H64.1113V60.5625ZM50.291 62.5625C50.291 55.9535 52.6958 50.7076 56.7818 47.0926C60.8935 43.4549 66.8803 41.3203 74.2676 41.3203V37.3203C66.1275 37.3203 59.126 39.6779 54.1313 44.0968C49.1108 48.5385 46.291 54.9137 46.291 62.5625H50.291ZM74.2676 41.3203C81.8823 41.3203 87.9943 43.3758 92.16 46.757C96.2901 50.1092 98.6348 54.859 98.6348 60.6094H102.635C102.635 53.6644 99.7548 47.7697 94.6808 43.6512C89.6425 39.5617 82.5708 37.3203 74.2676 37.3203V41.3203ZM98.6348 60.6094C98.6348 67.7491 95.3002 73.9599 79.9839 87.3251L82.6138 90.339C97.9616 76.9463 102.635 69.6806 102.635 60.6094H98.6348ZM79.9423 87.3624L71.0555 95.5655L73.7687 98.5048L82.6554 90.3016L79.9423 87.3624ZM70.4121 97.0352V97.5234H74.4121V97.0352H70.4121ZM72.4121 99.5234H101.514V95.5234H72.4121V99.5234ZM99.5137 97.5234V111H103.514V97.5234H99.5137ZM101.514 109H49.2676V113H101.514V109Z" fill="#F5F4F0" mask="url(#path-2-outside-1_26_1021)"/>
</svg>
