<svg width="150" height="150" viewBox="0 0 150 150" fill="none" xmlns="http://www.w3.org/2000/svg">
<circle cx="75" cy="75" r="74" fill="#F5F4F0" stroke="#AC0000" stroke-width="2"/>
<mask id="path-2-outside-1_26_1008" maskUnits="userSpaceOnUse" x="44" y="37" width="61" height="77" fill="black">
<rect fill="white" x="44" y="37" width="61" height="77"/>
<path d="M74.707 111.977C58.5938 111.977 47.168 103.09 46.9727 90.3945H63.7695C63.8672 95.082 68.5547 98.4023 74.8047 98.4023C81.0547 98.4023 85.5469 94.7891 85.4492 89.7109C85.5469 84.6328 80.7617 80.9219 73.3398 80.9219H66.5039V69.0078H73.3398C79.7852 69.0078 84.2773 65.5898 84.2773 60.5117C84.2773 55.7266 80.4688 52.3086 74.8047 52.3086C69.043 52.3086 64.4531 55.6289 64.3555 60.6094H48.3398C48.5352 48.1094 59.668 39.3203 74.9023 39.3203C90.0391 39.3203 100.391 48.0117 100.293 59.5352C100.391 67.4453 94.5312 73.0117 86.4258 74.1836V74.6719C97.2656 75.9414 103.027 82.1914 102.93 90.9805C103.027 103.188 91.2109 111.977 74.707 111.977Z"/>
</mask>
<path d="M74.707 111.977C58.5938 111.977 47.168 103.09 46.9727 90.3945H63.7695C63.8672 95.082 68.5547 98.4023 74.8047 98.4023C81.0547 98.4023 85.5469 94.7891 85.4492 89.7109C85.5469 84.6328 80.7617 80.9219 73.3398 80.9219H66.5039V69.0078H73.3398C79.7852 69.0078 84.2773 65.5898 84.2773 60.5117C84.2773 55.7266 80.4688 52.3086 74.8047 52.3086C69.043 52.3086 64.4531 55.6289 64.3555 60.6094H48.3398C48.5352 48.1094 59.668 39.3203 74.9023 39.3203C90.0391 39.3203 100.391 48.0117 100.293 59.5352C100.391 67.4453 94.5312 73.0117 86.4258 74.1836V74.6719C97.2656 75.9414 103.027 82.1914 102.93 90.9805C103.027 103.188 91.2109 111.977 74.707 111.977Z" fill="#AC0000"/>
<path d="M46.9727 90.3945V88.3945H44.9417L44.9729 90.4253L46.9727 90.3945ZM63.7695 90.3945L65.7691 90.3529L65.7283 88.3945H63.7695V90.3945ZM85.4492 89.7109L83.4496 89.6725L83.4488 89.7109L83.4496 89.7494L85.4492 89.7109ZM66.5039 80.9219H64.5039V82.9219H66.5039V80.9219ZM66.5039 69.0078V67.0078H64.5039V69.0078H66.5039ZM64.3555 60.6094V62.6094H66.3166L66.3551 60.6486L64.3555 60.6094ZM48.3398 60.6094L46.3401 60.5781L46.3083 62.6094H48.3398V60.6094ZM100.293 59.5352L98.293 59.5182L98.2929 59.539L98.2931 59.5598L100.293 59.5352ZM86.4258 74.1836L86.1396 72.2042L84.4258 72.452V74.1836H86.4258ZM86.4258 74.6719H84.4258V76.4513L86.1931 76.6583L86.4258 74.6719ZM102.93 90.9805L100.93 90.9582L100.93 90.9774L100.93 90.9965L102.93 90.9805ZM74.707 109.977C59.2256 109.977 49.1446 101.557 48.9724 90.3638L44.9729 90.4253C45.1913 104.622 57.9619 113.977 74.707 113.977V109.977ZM46.9727 92.3945H63.7695V88.3945H46.9727V92.3945ZM61.77 90.4362C61.9011 96.7286 68.0696 100.402 74.8047 100.402V96.4023C69.0397 96.4023 65.8333 93.4354 65.7691 90.3529L61.77 90.4362ZM74.8047 100.402C81.7234 100.402 87.5758 96.2737 87.4488 89.6725L83.4496 89.7494C83.518 93.3045 80.386 96.4023 74.8047 96.4023V100.402ZM87.4488 89.7494C87.5113 86.5005 85.9842 83.7135 83.4039 81.8043C80.8642 79.9253 77.3619 78.9219 73.3398 78.9219V82.9219C76.7397 82.9219 79.3408 83.774 81.0248 85.0199C82.6681 86.2358 83.4848 87.8432 83.4496 89.6725L87.4488 89.7494ZM73.3398 78.9219H66.5039V82.9219H73.3398V78.9219ZM68.5039 80.9219V69.0078H64.5039V80.9219H68.5039ZM66.5039 71.0078H73.3398V67.0078H66.5039V71.0078ZM73.3398 71.0078C76.8973 71.0078 80.0925 70.0658 82.4479 68.2471C84.842 66.3985 86.2773 63.7014 86.2773 60.5117H82.2773C82.2773 62.4001 81.4666 63.9511 80.0033 65.0811C78.5012 66.2409 76.2277 67.0078 73.3398 67.0078V71.0078ZM86.2773 60.5117C86.2773 57.5552 85.0858 54.9513 82.982 53.1106C80.8968 51.286 78.0343 50.3086 74.8047 50.3086V54.3086C77.2391 54.3086 79.1129 55.0402 80.348 56.1209C81.5646 57.1854 82.2773 58.6831 82.2773 60.5117H86.2773ZM74.8047 50.3086C68.4186 50.3086 62.4829 54.0885 62.3559 60.5702L66.3551 60.6486C66.4233 57.1694 69.6673 54.3086 74.8047 54.3086V50.3086ZM64.3555 58.6094H48.3398V62.6094H64.3555V58.6094ZM50.3396 60.6406C50.5121 49.6011 60.3509 41.3203 74.9023 41.3203V37.3203C58.9851 37.3203 46.5582 46.6176 46.3401 60.5781L50.3396 60.6406ZM74.9023 41.3203C89.3646 41.3203 98.378 49.4976 98.293 59.5182L102.293 59.5521C102.403 46.5258 90.7135 37.3203 74.9023 37.3203V41.3203ZM98.2931 59.5598C98.3756 66.2425 93.4912 71.1413 86.1396 72.2042L86.712 76.163C95.5713 74.8821 102.406 68.6482 102.293 59.5105L98.2931 59.5598ZM84.4258 74.1836V74.6719H88.4258V74.1836H84.4258ZM86.1931 76.6583C91.287 77.2549 94.9706 78.9947 97.3559 81.4113C99.7195 83.806 100.973 87.0301 100.93 90.9582L104.93 91.0027C104.984 86.1418 103.405 81.8463 100.203 78.6014C97.0216 75.3784 92.4044 73.3584 86.6584 72.6855L86.1931 76.6583ZM100.93 90.9965C100.973 96.3823 98.4108 101.059 93.8502 104.451C89.2589 107.867 82.6229 109.977 74.707 109.977V113.977C83.295 113.977 90.8192 111.692 96.2377 107.661C101.687 103.607 104.984 97.7856 104.93 90.9645L100.93 90.9965Z" fill="#AC0000" mask="url(#path-2-outside-1_26_1008)"/>
</svg>
