<svg width="150" height="150" viewBox="0 0 150 150" fill="none" xmlns="http://www.w3.org/2000/svg">
<circle cx="75" cy="75" r="74" fill="#F5F4F0" stroke="#AC0000" stroke-width="2"/>
<mask id="path-2-outside-1_26_995" maskUnits="userSpaceOnUse" x="43" y="38" width="64" height="75" fill="black">
<rect fill="white" x="43" y="38" width="64" height="75"/>
<path d="M45.8008 99.0859V86.0977L75.0977 40.2969H96.0938V86H104.688V99.0859H96.0938V111H80.1758V99.0859H45.8008ZM62.4023 86H80.4688V57.9727H79.8828L62.4023 85.4141V86Z"/>
</mask>
<path d="M45.8008 99.0859V86.0977L75.0977 40.2969H96.0938V86H104.688V99.0859H96.0938V111H80.1758V99.0859H45.8008ZM62.4023 86H80.4688V57.9727H79.8828L62.4023 85.4141V86Z" fill="#AC0000"/>
<path d="M45.8008 99.0859H43.8008V101.086H45.8008V99.0859ZM45.8008 86.0977L44.116 85.02L43.8008 85.5127V86.0977H45.8008ZM75.0977 40.2969V38.2969H74.0028L73.4129 39.2192L75.0977 40.2969ZM96.0938 40.2969H98.0938V38.2969H96.0938V40.2969ZM96.0938 86H94.0938V88H96.0938V86ZM104.688 86H106.688V84H104.688V86ZM104.688 99.0859V101.086H106.688V99.0859H104.688ZM96.0938 99.0859V97.0859H94.0938V99.0859H96.0938ZM96.0938 111V113H98.0938V111H96.0938ZM80.1758 111H78.1758V113H80.1758V111ZM80.1758 99.0859H82.1758V97.0859H80.1758V99.0859ZM62.4023 86H60.4023V88H62.4023V86ZM80.4688 86V88H82.4688V86H80.4688ZM80.4688 57.9727H82.4688V55.9727H80.4688V57.9727ZM79.8828 57.9727V55.9727H78.7855L78.196 56.8981L79.8828 57.9727ZM62.4023 85.4141L60.7155 84.3395L60.4023 84.8312V85.4141H62.4023ZM47.8008 99.0859V86.0977H43.8008V99.0859H47.8008ZM47.4856 87.1754L76.7825 41.3746L73.4129 39.2192L44.116 85.02L47.4856 87.1754ZM75.0977 42.2969H96.0938V38.2969H75.0977V42.2969ZM94.0938 40.2969V86H98.0938V40.2969H94.0938ZM96.0938 88H104.688V84H96.0938V88ZM102.688 86V99.0859H106.688V86H102.688ZM104.688 97.0859H96.0938V101.086H104.688V97.0859ZM94.0938 99.0859V111H98.0938V99.0859H94.0938ZM96.0938 109H80.1758V113H96.0938V109ZM82.1758 111V99.0859H78.1758V111H82.1758ZM80.1758 97.0859H45.8008V101.086H80.1758V97.0859ZM62.4023 88H80.4688V84H62.4023V88ZM82.4688 86V57.9727H78.4688V86H82.4688ZM80.4688 55.9727H79.8828V59.9727H80.4688V55.9727ZM78.196 56.8981L60.7155 84.3395L64.0892 86.4886L81.5696 59.0472L78.196 56.8981ZM60.4023 85.4141V86H64.4023V85.4141H60.4023Z" fill="#AC0000" mask="url(#path-2-outside-1_26_995)"/>
</svg>
