<svg width="150" height="150" viewBox="0 0 150 150" fill="none" xmlns="http://www.w3.org/2000/svg">
<circle cx="75" cy="75" r="74" fill="#AC0000" stroke="#F5F4F0" stroke-width="2"/>
<mask id="path-2-outside-1_26_1033" maskUnits="userSpaceOnUse" x="46" y="38" width="59" height="76" fill="black">
<rect fill="white" x="46" y="38" width="59" height="76"/>
<path d="M75.3418 111.977C59.9121 111.977 48.6816 102.992 48.4863 90.3945H64.6973C64.8926 95.668 69.5801 99.0859 75.3418 99.0859C81.9824 99.0859 86.7676 94.3984 86.6699 87.5625C86.7676 80.6289 81.8848 75.9414 75.1465 75.9414C70.0684 75.9414 66.748 77.8945 64.7949 81.7031H49.8535L53.3691 40.2969H98.584V53.7734H67.041L65.3809 70.668H65.8691C68.3105 66.7617 73.7793 64.0273 80.4199 64.0273C93.3105 64.0273 102.783 73.5977 102.783 87.0742C102.783 101.625 91.748 111.977 75.3418 111.977Z"/>
</mask>
<path d="M75.3418 111.977C59.9121 111.977 48.6816 102.992 48.4863 90.3945H64.6973C64.8926 95.668 69.5801 99.0859 75.3418 99.0859C81.9824 99.0859 86.7676 94.3984 86.6699 87.5625C86.7676 80.6289 81.8848 75.9414 75.1465 75.9414C70.0684 75.9414 66.748 77.8945 64.7949 81.7031H49.8535L53.3691 40.2969H98.584V53.7734H67.041L65.3809 70.668H65.8691C68.3105 66.7617 73.7793 64.0273 80.4199 64.0273C93.3105 64.0273 102.783 73.5977 102.783 87.0742C102.783 101.625 91.748 111.977 75.3418 111.977Z" fill="#F5F4F0"/>
<path d="M48.4863 90.3945V88.3945H46.4551L46.4866 90.4255L48.4863 90.3945ZM64.6973 90.3945L66.6959 90.3205L66.6246 88.3945H64.6973V90.3945ZM86.6699 87.5625L84.6701 87.5343L84.6697 87.5627L84.6701 87.5911L86.6699 87.5625ZM64.7949 81.7031V83.7031H66.0169L66.5746 82.6158L64.7949 81.7031ZM49.8535 81.7031L47.8607 81.5339L47.6765 83.7031H49.8535V81.7031ZM53.3691 40.2969V38.2969H51.5318L51.3763 40.1277L53.3691 40.2969ZM98.584 40.2969H100.584V38.2969H98.584V40.2969ZM98.584 53.7734V55.7734H100.584V53.7734H98.584ZM67.041 53.7734V51.7734H65.2279L65.0506 53.5778L67.041 53.7734ZM65.3809 70.668L63.3904 70.4724L63.1747 72.668H65.3809V70.668ZM65.8691 70.668V72.668H66.9776L67.5651 71.728L65.8691 70.668ZM75.3418 109.977C60.6065 109.977 50.6589 101.51 50.4861 90.3635L46.4866 90.4255C46.7044 104.475 59.2177 113.977 75.3418 113.977V109.977ZM48.4863 92.3945H64.6973V88.3945H48.4863V92.3945ZM62.6986 90.4686C62.9465 97.162 68.8867 101.086 75.3418 101.086V97.0859C70.2735 97.0859 66.8386 94.174 66.6959 90.3205L62.6986 90.4686ZM75.3418 101.086C79.143 101.086 82.5267 99.7368 84.9512 97.2976C87.3787 94.8554 88.7255 91.4401 88.6697 87.5339L84.6701 87.5911C84.712 90.5209 83.7151 92.8672 82.1142 94.4778C80.5104 96.0913 78.1812 97.0859 75.3418 97.0859V101.086ZM88.6697 87.5907C88.7255 83.6311 87.3507 80.1878 84.8817 77.7334C82.4179 75.2843 78.9874 73.9414 75.1465 73.9414V77.9414C78.0438 77.9414 80.4239 78.9423 82.0617 80.5703C83.6942 82.1931 84.712 84.5604 84.6701 87.5343L88.6697 87.5907ZM75.1465 73.9414C72.3536 73.9414 69.8949 74.4791 67.8159 75.6522C65.7222 76.8337 64.1461 78.5853 63.0153 80.7905L66.5746 82.6158C67.3968 81.0123 68.4575 79.8831 69.7817 79.1359C71.1207 78.3803 72.8612 77.9414 75.1465 77.9414V73.9414ZM64.7949 79.7031H49.8535V83.7031H64.7949V79.7031ZM51.8463 81.8723L55.362 40.4661L51.3763 40.1277L47.8607 81.5339L51.8463 81.8723ZM53.3691 42.2969H98.584V38.2969H53.3691V42.2969ZM96.584 40.2969V53.7734H100.584V40.2969H96.584ZM98.584 51.7734H67.041V55.7734H98.584V51.7734ZM65.0506 53.5778L63.3904 70.4724L67.3713 70.8636L69.0314 53.969L65.0506 53.5778ZM65.3809 72.668H65.8691V68.668H65.3809V72.668ZM67.5651 71.728C69.5378 68.5717 74.2485 66.0273 80.4199 66.0273V62.0273C73.3101 62.0273 67.0833 64.9518 64.1731 69.608L67.5651 71.728ZM80.4199 66.0273C92.1605 66.0273 100.783 74.6562 100.783 87.0742H104.783C104.783 72.5391 94.4605 62.0273 80.4199 62.0273V66.0273ZM100.783 87.0742C100.783 93.8189 98.2382 99.4992 93.8637 103.507C89.4773 107.526 83.1236 109.977 75.3418 109.977V113.977C83.9662 113.977 91.3332 111.251 96.566 106.457C101.811 101.651 104.783 94.8803 104.783 87.0742H100.783Z" fill="#F5F4F0" mask="url(#path-2-outside-1_26_1033)"/>
</svg>
