<svg width="24" height="25" viewBox="0 0 24 25" fill="none" xmlns="http://www.w3.org/2000/svg">
<path d="M18.3035 13.1089L17.7536 12.5989L18.3035 13.1089ZM11.2324 6.03788L11.7425 6.58778L11.2324 6.03788ZM21.6609 4.57237L22.4045 4.66963L21.6609 4.57237ZM19.769 2.68051L19.8663 3.42418L19.8663 3.42418L19.769 2.68051ZM6.49434 12.9507L7.16777 13.2808L6.49434 12.9507ZM11.3907 17.8471L11.0606 17.1736L11.0606 17.1736L11.3907 17.8471ZM8.22728 10.4573C7.93438 10.1644 7.45951 10.1644 7.16662 10.4573C6.87372 10.7502 6.87372 11.225 7.16662 11.5179L8.22728 10.4573ZM12.8235 17.1748C13.1164 17.4677 13.5912 17.4677 13.8841 17.1748C14.177 16.8819 14.177 16.407 13.8841 16.1141L12.8235 17.1748ZM6.45951 18.9425C6.7524 18.6496 6.7524 18.1748 6.45951 17.8819C6.16662 17.589 5.69174 17.589 5.39885 17.8819L6.45951 18.9425ZM2.57042 20.7103C2.27753 21.0032 2.27753 21.4781 2.57042 21.771C2.86332 22.0639 3.33819 22.0639 3.63108 21.771L2.57042 20.7103ZM4.33819 16.8212C4.63108 16.5283 4.63108 16.0535 4.33819 15.7606C4.0453 15.4677 3.57042 15.4677 3.27753 15.7606L4.33819 16.8212ZM1.86332 17.1748C1.57042 17.4677 1.57042 17.9425 1.86332 18.2354C2.15621 18.5283 2.63108 18.5283 2.92398 18.2354L1.86332 17.1748ZM8.58083 21.0639C8.87372 20.771 8.87372 20.2961 8.58083 20.0032C8.28794 19.7103 7.81306 19.7103 7.52017 20.0032L8.58083 21.0639ZM6.10596 21.4174C5.81306 21.7103 5.81306 22.1852 6.10596 22.4781C6.39885 22.771 6.87372 22.771 7.16662 22.4781L6.10596 21.4174ZM10.5961 21.3821L11.3385 21.276L11.3385 21.276L10.5961 21.3821ZM15.758 17.9172L16.5004 17.8112L16.5004 17.8112L15.758 17.9172ZM2.95931 13.7453L3.06538 13.0029L3.06538 13.0029L2.95931 13.7453ZM6.42413 8.58345L6.31807 9.32591L6.31807 9.32591L6.42413 8.58345ZM9.75022 16.93L7.41137 14.5912L6.35071 15.6518L8.68956 17.9907L9.75022 16.93ZM17.7536 12.5989C15.86 14.6407 12.7853 16.3281 11.0606 17.1736L11.7209 18.5205C13.4611 17.6673 16.7568 15.8796 18.8534 13.619L17.7536 12.5989ZM7.16777 13.2808C8.0133 11.5561 9.70072 8.48142 11.7425 6.58778L10.7224 5.48798C8.46181 7.58463 6.67406 10.8803 5.82092 12.6205L7.16777 13.2808ZM20.9172 4.47511C20.6134 6.79845 19.806 10.386 17.7536 12.5989L18.8534 13.619C21.2489 11.0361 22.096 7.02863 22.4045 4.66963L20.9172 4.47511ZM11.7425 6.58778C13.9554 4.53537 17.5429 3.72804 19.8663 3.42418L19.6718 1.93684C17.3128 2.24537 13.3053 3.09248 10.7224 5.48798L11.7425 6.58778ZM22.4045 4.66963C22.6156 3.05576 21.2856 1.72577 19.6718 1.93684L19.8663 3.42418C20.5032 3.34087 21.0005 3.83815 20.9172 4.47511L22.4045 4.66963ZM7.41137 14.5912C7.04819 14.228 6.95945 13.7057 7.16777 13.2808L5.82092 12.6205C5.31272 13.6571 5.56292 14.864 6.35071 15.6518L7.41137 14.5912ZM8.68956 17.9907C9.47735 18.7785 10.6843 19.0287 11.7209 18.5205L11.0606 17.1736C10.6357 17.3819 10.1134 17.2932 9.75022 16.93L8.68956 17.9907ZM7.16662 11.5179L12.8235 17.1748L13.8841 16.1141L8.22728 10.4573L7.16662 11.5179ZM5.39885 17.8819L2.57042 20.7103L3.63108 21.771L6.45951 18.9425L5.39885 17.8819ZM3.27753 15.7606L1.86332 17.1748L2.92398 18.2354L4.33819 16.8212L3.27753 15.7606ZM7.52017 20.0032L6.10596 21.4174L7.16662 22.4781L8.58083 21.0639L7.52017 20.0032ZM13.177 7.27528C12.1031 8.34922 12.1031 10.0904 13.177 11.1644L14.2377 10.1037C13.7495 9.61555 13.7495 8.82409 14.2377 8.33594L13.177 7.27528ZM13.177 11.1644C14.251 12.2383 15.9922 12.2383 17.0661 11.1644L16.0055 10.1037C15.5173 10.5919 14.7258 10.5919 14.2377 10.1037L13.177 11.1644ZM17.0661 11.1644C18.1401 10.0904 18.1401 8.34922 17.0661 7.27528L16.0055 8.33594C16.4936 8.82409 16.4936 9.61555 16.0055 10.1037L17.0661 11.1644ZM17.0661 7.27528C15.9922 6.20134 14.251 6.20134 13.177 7.27528L14.2377 8.33594C14.7258 7.84778 15.5173 7.84778 16.0055 8.33594L17.0661 7.27528ZM14.9448 18.2354L11.7628 21.4174L12.8235 22.4781L16.0055 19.2961L14.9448 18.2354ZM11.3385 21.276L10.9143 18.3061L9.42936 18.5183L9.85362 21.4881L11.3385 21.276ZM14.7327 16.0434L15.0155 18.0233L16.5004 17.8112L16.2176 15.8313L14.7327 16.0434ZM11.7628 21.4174C11.6171 21.5631 11.3677 21.4799 11.3385 21.276L9.85362 21.4881C10.0576 22.9157 11.8038 23.4978 12.8235 22.4781L11.7628 21.4174ZM16.0055 19.2961C16.3949 18.9066 16.5783 18.3565 16.5004 17.8112L15.0155 18.0233C15.0266 18.1012 15.0004 18.1798 14.9448 18.2354L16.0055 19.2961ZM5.04528 8.33596L1.86329 11.5179L2.92395 12.5786L6.10594 9.39662L5.04528 8.33596ZM2.85324 14.4878L5.82309 14.9121L6.03522 13.4271L3.06538 13.0029L2.85324 14.4878ZM8.5101 8.12383L6.5302 7.84098L6.31807 9.32591L8.29797 9.60875L8.5101 8.12383ZM1.86329 11.5179C0.84359 12.5376 1.42566 14.2838 2.85325 14.4878L3.06538 13.0029C2.86144 12.9737 2.77828 12.7243 2.92395 12.5786L1.86329 11.5179ZM6.10594 9.39662C6.16158 9.34098 6.24017 9.31478 6.31807 9.32591L6.5302 7.84098C5.98491 7.76309 5.43477 7.94647 5.04528 8.33596L6.10594 9.39662Z" fill="#AC0000" fill-opacity="0.3"/>
</svg>
